ISO-10303-21;
HEADER;
/* Generated by software containing ST-Developer
 * from STEP Tools, Inc. (www.steptools.com) 
 */

FILE_DESCRIPTION(
/* description */ (''),
/* implementation_level */ '2;1');

FILE_NAME(
/* name */ 'CameraReplace.step',
/* time_stamp */ '2026-09-13T22:42:07+03:00',
/* author */ (''),
/* organization */ (''),
/* preprocessor_version */ 'ST-DEVELOPER v20.1',
/* originating_system */ 'Autodesk Translation Framework v15.8.0.0',
/* authorisation */ '');

FILE_SCHEMA (('AUTOMOTIVE_DESIGN { 1 0 10303 214 3 1 1 }'));
ENDSEC;

DATA;
#10=MECHANICAL_DESIGN_GEOMETRIC_PRESENTATION_REPRESENTATION('',(#13),#1389);
#11=SHAPE_REPRESENTATION_RELATIONSHIP('SRR','None',#1396,#12);
#12=ADVANCED_BREP_SHAPE_REPRESENTATION('',(#14),#1388);
#13=STYLED_ITEM('',(#1405),#14);
#14=MANIFOLD_SOLID_BREP('CameraReplace',#857);
#15=ELLIPSE('',#880,1.47960674204706,1.25);
#16=ELLIPSE('',#884,1.47960674204706,1.25);
#17=FACE_BOUND('',#115,.T.);
#18=FACE_BOUND('',#119,.T.);
#19=FACE_BOUND('',#123,.T.);
#20=FACE_BOUND('',#135,.T.);
#21=FACE_BOUND('',#143,.T.);
#22=FACE_BOUND('',#151,.T.);
#23=FACE_BOUND('',#152,.T.);
#24=FACE_BOUND('',#155,.T.);
#25=FACE_BOUND('',#156,.T.);
#26=FACE_BOUND('',#160,.T.);
#27=FACE_BOUND('',#164,.T.);
#28=FACE_BOUND('',#165,.T.);
#29=PLANE('',#876);
#30=PLANE('',#877);
#31=PLANE('',#878);
#32=PLANE('',#879);
#33=PLANE('',#881);
#34=PLANE('',#882);
#35=PLANE('',#883);
#36=PLANE('',#885);
#37=PLANE('',#886);
#38=PLANE('',#887);
#39=PLANE('',#888);
#40=PLANE('',#889);
#41=PLANE('',#890);
#42=PLANE('',#891);
#43=PLANE('',#892);
#44=PLANE('',#893);
#45=PLANE('',#894);
#46=PLANE('',#895);
#47=PLANE('',#897);
#48=PLANE('',#898);
#49=PLANE('',#904);
#50=PLANE('',#905);
#51=PLANE('',#906);
#52=PLANE('',#907);
#53=PLANE('',#908);
#54=PLANE('',#909);
#55=PLANE('',#910);
#56=PLANE('',#911);
#57=PLANE('',#914);
#58=PLANE('',#917);
#59=PLANE('',#922);
#60=PLANE('',#924);
#61=PLANE('',#925);
#62=PLANE('',#926);
#63=CYLINDRICAL_SURFACE('',#874,1.5);
#64=CYLINDRICAL_SURFACE('',#899,1.2);
#65=CYLINDRICAL_SURFACE('',#902,1.2);
#66=CYLINDRICAL_SURFACE('',#912,1.25);
#67=CYLINDRICAL_SURFACE('',#919,1.25);
#68=CYLINDRICAL_SURFACE('',#928,2.25);
#69=FACE_OUTER_BOUND('',#112,.T.);
#70=FACE_OUTER_BOUND('',#113,.T.);
#71=FACE_OUTER_BOUND('',#114,.T.);
#72=FACE_OUTER_BOUND('',#116,.T.);
#73=FACE_OUTER_BOUND('',#117,.T.);
#74=FACE_OUTER_BOUND('',#118,.T.);
#75=FACE_OUTER_BOUND('',#120,.T.);
#76=FACE_OUTER_BOUND('',#121,.T.);
#77=FACE_OUTER_BOUND('',#122,.T.);
#78=FACE_OUTER_BOUND('',#124,.T.);
#79=FACE_OUTER_BOUND('',#125,.T.);
#80=FACE_OUTER_BOUND('',#126,.T.);
#81=FACE_OUTER_BOUND('',#127,.T.);
#82=FACE_OUTER_BOUND('',#128,.T.);
#83=FACE_OUTER_BOUND('',#129,.T.);
#84=FACE_OUTER_BOUND('',#130,.T.);
#85=FACE_OUTER_BOUND('',#131,.T.);
#86=FACE_OUTER_BOUND('',#132,.T.);
#87=FACE_OUTER_BOUND('',#133,.T.);
#88=FACE_OUTER_BOUND('',#134,.T.);
#89=FACE_OUTER_BOUND('',#136,.T.);
#90=FACE_OUTER_BOUND('',#137,.T.);
#91=FACE_OUTER_BOUND('',#138,.T.);
#92=FACE_OUTER_BOUND('',#139,.T.);
#93=FACE_OUTER_BOUND('',#140,.T.);
#94=FACE_OUTER_BOUND('',#141,.T.);
#95=FACE_OUTER_BOUND('',#142,.T.);
#96=FACE_OUTER_BOUND('',#144,.T.);
#97=FACE_OUTER_BOUND('',#145,.T.);
#98=FACE_OUTER_BOUND('',#146,.T.);
#99=FACE_OUTER_BOUND('',#147,.T.);
#100=FACE_OUTER_BOUND('',#148,.T.);
#101=FACE_OUTER_BOUND('',#149,.T.);
#102=FACE_OUTER_BOUND('',#150,.T.);
#103=FACE_OUTER_BOUND('',#153,.T.);
#104=FACE_OUTER_BOUND('',#154,.T.);
#105=FACE_OUTER_BOUND('',#157,.T.);
#106=FACE_OUTER_BOUND('',#158,.T.);
#107=FACE_OUTER_BOUND('',#159,.T.);
#108=FACE_OUTER_BOUND('',#161,.T.);
#109=FACE_OUTER_BOUND('',#162,.T.);
#110=FACE_OUTER_BOUND('',#163,.T.);
#111=FACE_OUTER_BOUND('',#166,.T.);
#112=EDGE_LOOP('',(#577,#578,#579,#580));
#113=EDGE_LOOP('',(#581,#582,#583,#584));
#114=EDGE_LOOP('',(#585,#586,#587,#588,#589,#590,#591,#592,#593,#594,#595,
#596));
#115=EDGE_LOOP('',(#597));
#116=EDGE_LOOP('',(#598,#599,#600));
#117=EDGE_LOOP('',(#601,#602,#603,#604));
#118=EDGE_LOOP('',(#605,#606,#607,#608));
#119=EDGE_LOOP('',(#609));
#120=EDGE_LOOP('',(#610,#611,#612,#613));
#121=EDGE_LOOP('',(#614,#615,#616,#617,#618,#619,#620,#621,#622,#623));
#122=EDGE_LOOP('',(#624,#625,#626,#627));
#123=EDGE_LOOP('',(#628));
#124=EDGE_LOOP('',(#629,#630,#631,#632,#633));
#125=EDGE_LOOP('',(#634,#635,#636,#637));
#126=EDGE_LOOP('',(#638,#639,#640,#641));
#127=EDGE_LOOP('',(#642,#643,#644,#645));
#128=EDGE_LOOP('',(#646,#647,#648,#649));
#129=EDGE_LOOP('',(#650,#651,#652,#653));
#130=EDGE_LOOP('',(#654,#655,#656,#657));
#131=EDGE_LOOP('',(#658,#659,#660,#661,#662,#663,#664,#665,#666,#667));
#132=EDGE_LOOP('',(#668,#669,#670,#671));
#133=EDGE_LOOP('',(#672,#673,#674,#675,#676,#677,#678,#679,#680,#681));
#134=EDGE_LOOP('',(#682,#683,#684,#685));
#135=EDGE_LOOP('',(#686));
#136=EDGE_LOOP('',(#687,#688,#689,#690));
#137=EDGE_LOOP('',(#691,#692,#693,#694));
#138=EDGE_LOOP('',(#695,#696,#697,#698));
#139=EDGE_LOOP('',(#699,#700,#701,#702));
#140=EDGE_LOOP('',(#703,#704,#705,#706));
#141=EDGE_LOOP('',(#707,#708,#709,#710));
#142=EDGE_LOOP('',(#711,#712,#713,#714));
#143=EDGE_LOOP('',(#715));
#144=EDGE_LOOP('',(#716,#717,#718,#719));
#145=EDGE_LOOP('',(#720,#721,#722,#723));
#146=EDGE_LOOP('',(#724,#725,#726,#727,#728,#729,#730,#731,#732,#733));
#147=EDGE_LOOP('',(#734,#735,#736,#737,#738,#739,#740,#741,#742));
#148=EDGE_LOOP('',(#743,#744,#745,#746,#747));
#149=EDGE_LOOP('',(#748,#749,#750,#751));
#150=EDGE_LOOP('',(#752,#753,#754,#755));
#151=EDGE_LOOP('',(#756));
#152=EDGE_LOOP('',(#757));
#153=EDGE_LOOP('',(#758,#759,#760,#761));
#154=EDGE_LOOP('',(#762,#763,#764,#765));
#155=EDGE_LOOP('',(#766));
#156=EDGE_LOOP('',(#767));
#157=EDGE_LOOP('',(#768,#769,#770,#771));
#158=EDGE_LOOP('',(#772,#773,#774,#775));
#159=EDGE_LOOP('',(#776,#777,#778,#779));
#160=EDGE_LOOP('',(#780));
#161=EDGE_LOOP('',(#781,#782,#783,#784,#785,#786));
#162=EDGE_LOOP('',(#787,#788,#789,#790,#791,#792));
#163=EDGE_LOOP('',(#793,#794,#795,#796,#797,#798,#799,#800,#801,#802,#803,
#804));
#164=EDGE_LOOP('',(#805));
#165=EDGE_LOOP('',(#806));
#166=EDGE_LOOP('',(#807,#808,#809,#810));
#167=LINE('',#1154,#269);
#168=LINE('',#1159,#270);
#169=LINE('',#1163,#271);
#170=LINE('',#1165,#272);
#171=LINE('',#1167,#273);
#172=LINE('',#1169,#274);
#173=LINE('',#1171,#275);
#174=LINE('',#1173,#276);
#175=LINE('',#1175,#277);
#176=LINE('',#1177,#278);
#177=LINE('',#1179,#279);
#178=LINE('',#1181,#280);
#179=LINE('',#1183,#281);
#180=LINE('',#1184,#282);
#181=LINE('',#1187,#283);
#182=LINE('',#1188,#284);
#183=LINE('',#1191,#285);
#184=LINE('',#1193,#286);
#185=LINE('',#1194,#287);
#186=LINE('',#1197,#288);
#187=LINE('',#1199,#289);
#188=LINE('',#1200,#290);
#189=LINE('',#1206,#291);
#190=LINE('',#1208,#292);
#191=LINE('',#1210,#293);
#192=LINE('',#1211,#294);
#193=LINE('',#1214,#295);
#194=LINE('',#1216,#296);
#195=LINE('',#1218,#297);
#196=LINE('',#1220,#298);
#197=LINE('',#1222,#299);
#198=LINE('',#1224,#300);
#199=LINE('',#1226,#301);
#200=LINE('',#1228,#302);
#201=LINE('',#1229,#303);
#202=LINE('',#1232,#304);
#203=LINE('',#1233,#305);
#204=LINE('',#1238,#306);
#205=LINE('',#1240,#307);
#206=LINE('',#1242,#308);
#207=LINE('',#1243,#309);
#208=LINE('',#1246,#310);
#209=LINE('',#1248,#311);
#210=LINE('',#1249,#312);
#211=LINE('',#1252,#313);
#212=LINE('',#1253,#314);
#213=LINE('',#1255,#315);
#214=LINE('',#1256,#316);
#215=LINE('',#1259,#317);
#216=LINE('',#1261,#318);
#217=LINE('',#1263,#319);
#218=LINE('',#1264,#320);
#219=LINE('',#1267,#321);
#220=LINE('',#1268,#322);
#221=LINE('',#1271,#323);
#222=LINE('',#1273,#324);
#223=LINE('',#1274,#325);
#224=LINE('',#1277,#326);
#225=LINE('',#1279,#327);
#226=LINE('',#1280,#328);
#227=LINE('',#1281,#329);
#228=LINE('',#1284,#330);
#229=LINE('',#1286,#331);
#230=LINE('',#1287,#332);
#231=LINE('',#1290,#333);
#232=LINE('',#1292,#334);
#233=LINE('',#1294,#335);
#234=LINE('',#1296,#336);
#235=LINE('',#1298,#337);
#236=LINE('',#1299,#338);
#237=LINE('',#1302,#339);
#238=LINE('',#1304,#340);
#239=LINE('',#1305,#341);
#240=LINE('',#1310,#342);
#241=LINE('',#1312,#343);
#242=LINE('',#1313,#344);
#243=LINE('',#1316,#345);
#244=LINE('',#1317,#346);
#245=LINE('',#1322,#347);
#246=LINE('',#1326,#348);
#247=LINE('',#1330,#349);
#248=LINE('',#1332,#350);
#249=LINE('',#1333,#351);
#250=LINE('',#1336,#352);
#251=LINE('',#1338,#353);
#252=LINE('',#1339,#354);
#253=LINE('',#1342,#355);
#254=LINE('',#1343,#356);
#255=LINE('',#1345,#357);
#256=LINE('',#1347,#358);
#257=LINE('',#1349,#359);
#258=LINE('',#1350,#360);
#259=LINE('',#1352,#361);
#260=LINE('',#1353,#362);
#261=LINE('',#1355,#363);
#262=LINE('',#1358,#364);
#263=LINE('',#1364,#365);
#264=LINE('',#1370,#366);
#265=LINE('',#1373,#367);
#266=LINE('',#1375,#368);
#267=LINE('',#1376,#369);
#268=LINE('',#1385,#370);
#269=VECTOR('',#935,2.);
#270=VECTOR('',#942,1.5);
#271=VECTOR('',#945,10.);
#272=VECTOR('',#946,10.);
#273=VECTOR('',#947,10.);
#274=VECTOR('',#948,10.);
#275=VECTOR('',#949,10.);
#276=VECTOR('',#950,10.);
#277=VECTOR('',#951,10.);
#278=VECTOR('',#952,10.);
#279=VECTOR('',#953,10.);
#280=VECTOR('',#954,10.);
#281=VECTOR('',#955,10.);
#282=VECTOR('',#956,10.);
#283=VECTOR('',#959,10.);
#284=VECTOR('',#960,10.);
#285=VECTOR('',#963,10.);
#286=VECTOR('',#964,10.);
#287=VECTOR('',#965,10.);
#288=VECTOR('',#968,10.);
#289=VECTOR('',#969,10.);
#290=VECTOR('',#970,10.);
#291=VECTOR('',#975,10.);
#292=VECTOR('',#976,10.);
#293=VECTOR('',#977,10.);
#294=VECTOR('',#978,10.);
#295=VECTOR('',#981,10.);
#296=VECTOR('',#982,10.);
#297=VECTOR('',#983,10.);
#298=VECTOR('',#984,10.);
#299=VECTOR('',#985,10.);
#300=VECTOR('',#986,10.);
#301=VECTOR('',#987,10.);
#302=VECTOR('',#988,10.);
#303=VECTOR('',#989,10.);
#304=VECTOR('',#992,10.);
#305=VECTOR('',#993,10.);
#306=VECTOR('',#998,10.);
#307=VECTOR('',#999,10.);
#308=VECTOR('',#1000,10.);
#309=VECTOR('',#1001,10.);
#310=VECTOR('',#1004,10.);
#311=VECTOR('',#1005,10.);
#312=VECTOR('',#1006,10.);
#313=VECTOR('',#1009,10.);
#314=VECTOR('',#1010,10.);
#315=VECTOR('',#1013,10.);
#316=VECTOR('',#1014,10.);
#317=VECTOR('',#1017,10.);
#318=VECTOR('',#1018,10.);
#319=VECTOR('',#1019,10.);
#320=VECTOR('',#1020,10.);
#321=VECTOR('',#1023,10.);
#322=VECTOR('',#1024,10.);
#323=VECTOR('',#1027,10.);
#324=VECTOR('',#1028,10.);
#325=VECTOR('',#1029,10.);
#326=VECTOR('',#1032,10.);
#327=VECTOR('',#1033,10.);
#328=VECTOR('',#1034,10.);
#329=VECTOR('',#1035,10.);
#330=VECTOR('',#1038,10.);
#331=VECTOR('',#1039,10.);
#332=VECTOR('',#1040,10.);
#333=VECTOR('',#1043,10.);
#334=VECTOR('',#1044,10.);
#335=VECTOR('',#1045,10.);
#336=VECTOR('',#1046,10.);
#337=VECTOR('',#1047,10.);
#338=VECTOR('',#1048,10.);
#339=VECTOR('',#1051,10.);
#340=VECTOR('',#1052,10.);
#341=VECTOR('',#1053,10.);
#342=VECTOR('',#1058,10.);
#343=VECTOR('',#1059,10.);
#344=VECTOR('',#1060,10.);
#345=VECTOR('',#1063,10.);
#346=VECTOR('',#1064,10.);
#347=VECTOR('',#1069,1.6);
#348=VECTOR('',#1074,1.6);
#349=VECTOR('',#1079,10.);
#350=VECTOR('',#1080,10.);
#351=VECTOR('',#1081,10.);
#352=VECTOR('',#1084,10.);
#353=VECTOR('',#1085,10.);
#354=VECTOR('',#1086,10.);
#355=VECTOR('',#1089,10.);
#356=VECTOR('',#1090,10.);
#357=VECTOR('',#1093,10.);
#358=VECTOR('',#1096,10.);
#359=VECTOR('',#1099,10.);
#360=VECTOR('',#1100,10.);
#361=VECTOR('',#1103,10.);
#362=VECTOR('',#1104,10.);
#363=VECTOR('',#1107,10.);
#364=VECTOR('',#1110,1.25);
#365=VECTOR('',#1119,1.5);
#366=VECTOR('',#1126,1.25);
#367=VECTOR('',#1131,1.5);
#368=VECTOR('',#1134,10.);
#369=VECTOR('',#1135,10.);
#370=VECTOR('',#1148,2.25);
#371=CIRCLE('',#872,1.5);
#372=CIRCLE('',#873,2.5);
#373=CIRCLE('',#875,1.5);
#374=CIRCLE('',#896,1.2);
#375=CIRCLE('',#900,1.2);
#376=CIRCLE('',#901,1.2);
#377=CIRCLE('',#903,1.2);
#378=CIRCLE('',#913,1.25);
#379=CIRCLE('',#915,1.75);
#380=CIRCLE('',#918,1.75);
#381=CIRCLE('',#920,1.25);
#382=CIRCLE('',#923,2.25);
#383=CIRCLE('',#927,2.25);
#384=VERTEX_POINT('',#1151);
#385=VERTEX_POINT('',#1153);
#386=VERTEX_POINT('',#1157);
#387=VERTEX_POINT('',#1161);
#388=VERTEX_POINT('',#1162);
#389=VERTEX_POINT('',#1164);
#390=VERTEX_POINT('',#1166);
#391=VERTEX_POINT('',#1168);
#392=VERTEX_POINT('',#1170);
#393=VERTEX_POINT('',#1172);
#394=VERTEX_POINT('',#1174);
#395=VERTEX_POINT('',#1176);
#396=VERTEX_POINT('',#1178);
#397=VERTEX_POINT('',#1180);
#398=VERTEX_POINT('',#1182);
#399=VERTEX_POINT('',#1186);
#400=VERTEX_POINT('',#1190);
#401=VERTEX_POINT('',#1192);
#402=VERTEX_POINT('',#1196);
#403=VERTEX_POINT('',#1198);
#404=VERTEX_POINT('',#1201);
#405=VERTEX_POINT('',#1204);
#406=VERTEX_POINT('',#1205);
#407=VERTEX_POINT('',#1207);
#408=VERTEX_POINT('',#1209);
#409=VERTEX_POINT('',#1213);
#410=VERTEX_POINT('',#1215);
#411=VERTEX_POINT('',#1217);
#412=VERTEX_POINT('',#1219);
#413=VERTEX_POINT('',#1221);
#414=VERTEX_POINT('',#1223);
#415=VERTEX_POINT('',#1225);
#416=VERTEX_POINT('',#1227);
#417=VERTEX_POINT('',#1231);
#418=VERTEX_POINT('',#1234);
#419=VERTEX_POINT('',#1237);
#420=VERTEX_POINT('',#1239);
#421=VERTEX_POINT('',#1241);
#422=VERTEX_POINT('',#1245);
#423=VERTEX_POINT('',#1247);
#424=VERTEX_POINT('',#1251);
#425=VERTEX_POINT('',#1258);
#426=VERTEX_POINT('',#1260);
#427=VERTEX_POINT('',#1262);
#428=VERTEX_POINT('',#1266);
#429=VERTEX_POINT('',#1270);
#430=VERTEX_POINT('',#1272);
#431=VERTEX_POINT('',#1276);
#432=VERTEX_POINT('',#1278);
#433=VERTEX_POINT('',#1283);
#434=VERTEX_POINT('',#1285);
#435=VERTEX_POINT('',#1289);
#436=VERTEX_POINT('',#1291);
#437=VERTEX_POINT('',#1293);
#438=VERTEX_POINT('',#1295);
#439=VERTEX_POINT('',#1297);
#440=VERTEX_POINT('',#1301);
#441=VERTEX_POINT('',#1303);
#442=VERTEX_POINT('',#1306);
#443=VERTEX_POINT('',#1309);
#444=VERTEX_POINT('',#1311);
#445=VERTEX_POINT('',#1315);
#446=VERTEX_POINT('',#1319);
#447=VERTEX_POINT('',#1321);
#448=VERTEX_POINT('',#1325);
#449=VERTEX_POINT('',#1329);
#450=VERTEX_POINT('',#1331);
#451=VERTEX_POINT('',#1335);
#452=VERTEX_POINT('',#1337);
#453=VERTEX_POINT('',#1341);
#454=VERTEX_POINT('',#1357);
#455=VERTEX_POINT('',#1361);
#456=VERTEX_POINT('',#1366);
#457=VERTEX_POINT('',#1369);
#458=VERTEX_POINT('',#1377);
#459=VERTEX_POINT('',#1382);
#460=EDGE_CURVE('',#384,#384,#371,.T.);
#461=EDGE_CURVE('',#384,#385,#167,.T.);
#462=EDGE_CURVE('',#385,#385,#372,.T.);
#463=EDGE_CURVE('',#386,#386,#373,.T.);
#464=EDGE_CURVE('',#386,#384,#168,.T.);
#465=EDGE_CURVE('',#387,#388,#169,.T.);
#466=EDGE_CURVE('',#387,#389,#170,.T.);
#467=EDGE_CURVE('',#389,#390,#171,.T.);
#468=EDGE_CURVE('',#391,#390,#172,.T.);
#469=EDGE_CURVE('',#392,#391,#173,.T.);
#470=EDGE_CURVE('',#392,#393,#174,.T.);
#471=EDGE_CURVE('',#394,#393,#175,.T.);
#472=EDGE_CURVE('',#394,#395,#176,.F.);
#473=EDGE_CURVE('',#395,#396,#177,.T.);
#474=EDGE_CURVE('',#396,#397,#178,.T.);
#475=EDGE_CURVE('',#397,#398,#179,.T.);
#476=EDGE_CURVE('',#388,#398,#180,.T.);
#477=EDGE_CURVE('',#393,#399,#181,.T.);
#478=EDGE_CURVE('',#399,#392,#182,.T.);
#479=EDGE_CURVE('',#400,#398,#183,.T.);
#480=EDGE_CURVE('',#401,#400,#184,.T.);
#481=EDGE_CURVE('',#401,#388,#185,.T.);
#482=EDGE_CURVE('',#399,#402,#186,.T.);
#483=EDGE_CURVE('',#403,#402,#187,.T.);
#484=EDGE_CURVE('',#393,#403,#188,.T.);
#485=EDGE_CURVE('',#404,#404,#15,.T.);
#486=EDGE_CURVE('',#405,#406,#189,.T.);
#487=EDGE_CURVE('',#407,#405,#190,.T.);
#488=EDGE_CURVE('',#408,#407,#191,.T.);
#489=EDGE_CURVE('',#406,#408,#192,.T.);
#490=EDGE_CURVE('',#409,#407,#193,.T.);
#491=EDGE_CURVE('',#410,#405,#194,.T.);
#492=EDGE_CURVE('',#411,#410,#195,.T.);
#493=EDGE_CURVE('',#412,#411,#196,.T.);
#494=EDGE_CURVE('',#413,#412,#197,.T.);
#495=EDGE_CURVE('',#414,#413,#198,.T.);
#496=EDGE_CURVE('',#414,#415,#199,.T.);
#497=EDGE_CURVE('',#416,#415,#200,.T.);
#498=EDGE_CURVE('',#409,#416,#201,.T.);
#499=EDGE_CURVE('',#417,#406,#202,.T.);
#500=EDGE_CURVE('',#410,#417,#203,.T.);
#501=EDGE_CURVE('',#418,#418,#16,.T.);
#502=EDGE_CURVE('',#419,#389,#204,.T.);
#503=EDGE_CURVE('',#420,#419,#205,.T.);
#504=EDGE_CURVE('',#420,#421,#206,.T.);
#505=EDGE_CURVE('',#421,#390,#207,.T.);
#506=EDGE_CURVE('',#422,#396,#208,.T.);
#507=EDGE_CURVE('',#422,#423,#209,.F.);
#508=EDGE_CURVE('',#397,#423,#210,.T.);
#509=EDGE_CURVE('',#421,#424,#211,.T.);
#510=EDGE_CURVE('',#424,#391,#212,.T.);
#511=EDGE_CURVE('',#419,#409,#213,.T.);
#512=EDGE_CURVE('',#416,#420,#214,.T.);
#513=EDGE_CURVE('',#425,#422,#215,.T.);
#514=EDGE_CURVE('',#425,#426,#216,.T.);
#515=EDGE_CURVE('',#426,#427,#217,.T.);
#516=EDGE_CURVE('',#422,#427,#218,.F.);
#517=EDGE_CURVE('',#428,#387,#219,.T.);
#518=EDGE_CURVE('',#428,#419,#220,.F.);
#519=EDGE_CURVE('',#394,#429,#221,.T.);
#520=EDGE_CURVE('',#429,#430,#222,.T.);
#521=EDGE_CURVE('',#430,#395,#223,.T.);
#522=EDGE_CURVE('',#431,#428,#224,.T.);
#523=EDGE_CURVE('',#432,#431,#225,.F.);
#524=EDGE_CURVE('',#432,#423,#226,.F.);
#525=EDGE_CURVE('',#408,#427,#227,.T.);
#526=EDGE_CURVE('',#433,#431,#228,.T.);
#527=EDGE_CURVE('',#434,#433,#229,.T.);
#528=EDGE_CURVE('',#434,#432,#230,.T.);
#529=EDGE_CURVE('',#435,#424,#231,.T.);
#530=EDGE_CURVE('',#436,#435,#232,.T.);
#531=EDGE_CURVE('',#437,#436,#233,.T.);
#532=EDGE_CURVE('',#437,#438,#234,.T.);
#533=EDGE_CURVE('',#439,#438,#235,.T.);
#534=EDGE_CURVE('',#439,#402,#236,.T.);
#535=EDGE_CURVE('',#440,#439,#237,.F.);
#536=EDGE_CURVE('',#438,#441,#238,.T.);
#537=EDGE_CURVE('',#441,#440,#239,.T.);
#538=EDGE_CURVE('',#442,#442,#374,.T.);
#539=EDGE_CURVE('',#413,#443,#240,.T.);
#540=EDGE_CURVE('',#444,#412,#241,.T.);
#541=EDGE_CURVE('',#443,#444,#242,.T.);
#542=EDGE_CURVE('',#445,#437,#243,.T.);
#543=EDGE_CURVE('',#445,#441,#244,.T.);
#544=EDGE_CURVE('',#446,#446,#375,.T.);
#545=EDGE_CURVE('',#446,#447,#245,.T.);
#546=EDGE_CURVE('',#447,#447,#376,.F.);
#547=EDGE_CURVE('',#442,#448,#246,.T.);
#548=EDGE_CURVE('',#448,#448,#377,.F.);
#549=EDGE_CURVE('',#449,#414,#247,.T.);
#550=EDGE_CURVE('',#449,#450,#248,.T.);
#551=EDGE_CURVE('',#415,#450,#249,.T.);
#552=EDGE_CURVE('',#436,#451,#250,.T.);
#553=EDGE_CURVE('',#452,#435,#251,.T.);
#554=EDGE_CURVE('',#451,#452,#252,.T.);
#555=EDGE_CURVE('',#411,#453,#253,.F.);
#556=EDGE_CURVE('',#453,#444,#254,.T.);
#557=EDGE_CURVE('',#453,#417,#255,.T.);
#558=EDGE_CURVE('',#440,#403,#256,.T.);
#559=EDGE_CURVE('',#450,#426,#257,.T.);
#560=EDGE_CURVE('',#443,#449,#258,.T.);
#561=EDGE_CURVE('',#451,#445,#259,.T.);
#562=EDGE_CURVE('',#429,#452,#260,.T.);
#563=EDGE_CURVE('',#430,#425,#261,.T.);
#564=EDGE_CURVE('',#418,#454,#262,.T.);
#565=EDGE_CURVE('',#454,#454,#378,.T.);
#566=EDGE_CURVE('',#455,#455,#379,.T.);
#567=EDGE_CURVE('',#454,#455,#263,.T.);
#568=EDGE_CURVE('',#456,#456,#380,.T.);
#569=EDGE_CURVE('',#404,#457,#264,.T.);
#570=EDGE_CURVE('',#457,#457,#381,.T.);
#571=EDGE_CURVE('',#457,#456,#265,.T.);
#572=EDGE_CURVE('',#433,#401,#266,.T.);
#573=EDGE_CURVE('',#400,#434,#267,.T.);
#574=EDGE_CURVE('',#458,#458,#382,.T.);
#575=EDGE_CURVE('',#459,#459,#383,.T.);
#576=EDGE_CURVE('',#459,#458,#268,.T.);
#577=ORIENTED_EDGE('',*,*,#460,.T.);
#578=ORIENTED_EDGE('',*,*,#461,.T.);
#579=ORIENTED_EDGE('',*,*,#462,.T.);
#580=ORIENTED_EDGE('',*,*,#461,.F.);
#581=ORIENTED_EDGE('',*,*,#463,.F.);
#582=ORIENTED_EDGE('',*,*,#464,.T.);
#583=ORIENTED_EDGE('',*,*,#460,.F.);
#584=ORIENTED_EDGE('',*,*,#464,.F.);
#585=ORIENTED_EDGE('',*,*,#465,.F.);
#586=ORIENTED_EDGE('',*,*,#466,.T.);
#587=ORIENTED_EDGE('',*,*,#467,.T.);
#588=ORIENTED_EDGE('',*,*,#468,.F.);
#589=ORIENTED_EDGE('',*,*,#469,.F.);
#590=ORIENTED_EDGE('',*,*,#470,.T.);
#591=ORIENTED_EDGE('',*,*,#471,.F.);
#592=ORIENTED_EDGE('',*,*,#472,.T.);
#593=ORIENTED_EDGE('',*,*,#473,.T.);
#594=ORIENTED_EDGE('',*,*,#474,.T.);
#595=ORIENTED_EDGE('',*,*,#475,.T.);
#596=ORIENTED_EDGE('',*,*,#476,.F.);
#597=ORIENTED_EDGE('',*,*,#462,.F.);
#598=ORIENTED_EDGE('',*,*,#477,.F.);
#599=ORIENTED_EDGE('',*,*,#470,.F.);
#600=ORIENTED_EDGE('',*,*,#478,.F.);
#601=ORIENTED_EDGE('',*,*,#476,.T.);
#602=ORIENTED_EDGE('',*,*,#479,.F.);
#603=ORIENTED_EDGE('',*,*,#480,.F.);
#604=ORIENTED_EDGE('',*,*,#481,.T.);
#605=ORIENTED_EDGE('',*,*,#477,.T.);
#606=ORIENTED_EDGE('',*,*,#482,.T.);
#607=ORIENTED_EDGE('',*,*,#483,.F.);
#608=ORIENTED_EDGE('',*,*,#484,.F.);
#609=ORIENTED_EDGE('',*,*,#485,.F.);
#610=ORIENTED_EDGE('',*,*,#486,.F.);
#611=ORIENTED_EDGE('',*,*,#487,.F.);
#612=ORIENTED_EDGE('',*,*,#488,.F.);
#613=ORIENTED_EDGE('',*,*,#489,.F.);
#614=ORIENTED_EDGE('',*,*,#490,.T.);
#615=ORIENTED_EDGE('',*,*,#487,.T.);
#616=ORIENTED_EDGE('',*,*,#491,.F.);
#617=ORIENTED_EDGE('',*,*,#492,.F.);
#618=ORIENTED_EDGE('',*,*,#493,.F.);
#619=ORIENTED_EDGE('',*,*,#494,.F.);
#620=ORIENTED_EDGE('',*,*,#495,.F.);
#621=ORIENTED_EDGE('',*,*,#496,.T.);
#622=ORIENTED_EDGE('',*,*,#497,.F.);
#623=ORIENTED_EDGE('',*,*,#498,.F.);
#624=ORIENTED_EDGE('',*,*,#486,.T.);
#625=ORIENTED_EDGE('',*,*,#499,.F.);
#626=ORIENTED_EDGE('',*,*,#500,.F.);
#627=ORIENTED_EDGE('',*,*,#491,.T.);
#628=ORIENTED_EDGE('',*,*,#501,.F.);
#629=ORIENTED_EDGE('',*,*,#502,.F.);
#630=ORIENTED_EDGE('',*,*,#503,.F.);
#631=ORIENTED_EDGE('',*,*,#504,.T.);
#632=ORIENTED_EDGE('',*,*,#505,.T.);
#633=ORIENTED_EDGE('',*,*,#467,.F.);
#634=ORIENTED_EDGE('',*,*,#506,.F.);
#635=ORIENTED_EDGE('',*,*,#507,.T.);
#636=ORIENTED_EDGE('',*,*,#508,.F.);
#637=ORIENTED_EDGE('',*,*,#474,.F.);
#638=ORIENTED_EDGE('',*,*,#468,.T.);
#639=ORIENTED_EDGE('',*,*,#505,.F.);
#640=ORIENTED_EDGE('',*,*,#509,.T.);
#641=ORIENTED_EDGE('',*,*,#510,.T.);
#642=ORIENTED_EDGE('',*,*,#511,.T.);
#643=ORIENTED_EDGE('',*,*,#498,.T.);
#644=ORIENTED_EDGE('',*,*,#512,.T.);
#645=ORIENTED_EDGE('',*,*,#503,.T.);
#646=ORIENTED_EDGE('',*,*,#513,.F.);
#647=ORIENTED_EDGE('',*,*,#514,.T.);
#648=ORIENTED_EDGE('',*,*,#515,.T.);
#649=ORIENTED_EDGE('',*,*,#516,.F.);
#650=ORIENTED_EDGE('',*,*,#502,.T.);
#651=ORIENTED_EDGE('',*,*,#466,.F.);
#652=ORIENTED_EDGE('',*,*,#517,.F.);
#653=ORIENTED_EDGE('',*,*,#518,.T.);
#654=ORIENTED_EDGE('',*,*,#472,.F.);
#655=ORIENTED_EDGE('',*,*,#519,.T.);
#656=ORIENTED_EDGE('',*,*,#520,.T.);
#657=ORIENTED_EDGE('',*,*,#521,.T.);
#658=ORIENTED_EDGE('',*,*,#518,.F.);
#659=ORIENTED_EDGE('',*,*,#522,.F.);
#660=ORIENTED_EDGE('',*,*,#523,.F.);
#661=ORIENTED_EDGE('',*,*,#524,.T.);
#662=ORIENTED_EDGE('',*,*,#507,.F.);
#663=ORIENTED_EDGE('',*,*,#516,.T.);
#664=ORIENTED_EDGE('',*,*,#525,.F.);
#665=ORIENTED_EDGE('',*,*,#488,.T.);
#666=ORIENTED_EDGE('',*,*,#490,.F.);
#667=ORIENTED_EDGE('',*,*,#511,.F.);
#668=ORIENTED_EDGE('',*,*,#523,.T.);
#669=ORIENTED_EDGE('',*,*,#526,.F.);
#670=ORIENTED_EDGE('',*,*,#527,.F.);
#671=ORIENTED_EDGE('',*,*,#528,.T.);
#672=ORIENTED_EDGE('',*,*,#469,.T.);
#673=ORIENTED_EDGE('',*,*,#510,.F.);
#674=ORIENTED_EDGE('',*,*,#529,.F.);
#675=ORIENTED_EDGE('',*,*,#530,.F.);
#676=ORIENTED_EDGE('',*,*,#531,.F.);
#677=ORIENTED_EDGE('',*,*,#532,.T.);
#678=ORIENTED_EDGE('',*,*,#533,.F.);
#679=ORIENTED_EDGE('',*,*,#534,.T.);
#680=ORIENTED_EDGE('',*,*,#482,.F.);
#681=ORIENTED_EDGE('',*,*,#478,.T.);
#682=ORIENTED_EDGE('',*,*,#535,.T.);
#683=ORIENTED_EDGE('',*,*,#533,.T.);
#684=ORIENTED_EDGE('',*,*,#536,.T.);
#685=ORIENTED_EDGE('',*,*,#537,.T.);
#686=ORIENTED_EDGE('',*,*,#538,.T.);
#687=ORIENTED_EDGE('',*,*,#539,.F.);
#688=ORIENTED_EDGE('',*,*,#494,.T.);
#689=ORIENTED_EDGE('',*,*,#540,.F.);
#690=ORIENTED_EDGE('',*,*,#541,.F.);
#691=ORIENTED_EDGE('',*,*,#542,.F.);
#692=ORIENTED_EDGE('',*,*,#543,.T.);
#693=ORIENTED_EDGE('',*,*,#536,.F.);
#694=ORIENTED_EDGE('',*,*,#532,.F.);
#695=ORIENTED_EDGE('',*,*,#544,.F.);
#696=ORIENTED_EDGE('',*,*,#545,.T.);
#697=ORIENTED_EDGE('',*,*,#546,.T.);
#698=ORIENTED_EDGE('',*,*,#545,.F.);
#699=ORIENTED_EDGE('',*,*,#538,.F.);
#700=ORIENTED_EDGE('',*,*,#547,.T.);
#701=ORIENTED_EDGE('',*,*,#548,.T.);
#702=ORIENTED_EDGE('',*,*,#547,.F.);
#703=ORIENTED_EDGE('',*,*,#549,.F.);
#704=ORIENTED_EDGE('',*,*,#550,.T.);
#705=ORIENTED_EDGE('',*,*,#551,.F.);
#706=ORIENTED_EDGE('',*,*,#496,.F.);
#707=ORIENTED_EDGE('',*,*,#552,.F.);
#708=ORIENTED_EDGE('',*,*,#530,.T.);
#709=ORIENTED_EDGE('',*,*,#553,.F.);
#710=ORIENTED_EDGE('',*,*,#554,.F.);
#711=ORIENTED_EDGE('',*,*,#555,.T.);
#712=ORIENTED_EDGE('',*,*,#556,.T.);
#713=ORIENTED_EDGE('',*,*,#540,.T.);
#714=ORIENTED_EDGE('',*,*,#493,.T.);
#715=ORIENTED_EDGE('',*,*,#544,.T.);
#716=ORIENTED_EDGE('',*,*,#500,.T.);
#717=ORIENTED_EDGE('',*,*,#557,.F.);
#718=ORIENTED_EDGE('',*,*,#555,.F.);
#719=ORIENTED_EDGE('',*,*,#492,.T.);
#720=ORIENTED_EDGE('',*,*,#483,.T.);
#721=ORIENTED_EDGE('',*,*,#534,.F.);
#722=ORIENTED_EDGE('',*,*,#535,.F.);
#723=ORIENTED_EDGE('',*,*,#558,.T.);
#724=ORIENTED_EDGE('',*,*,#525,.T.);
#725=ORIENTED_EDGE('',*,*,#515,.F.);
#726=ORIENTED_EDGE('',*,*,#559,.F.);
#727=ORIENTED_EDGE('',*,*,#550,.F.);
#728=ORIENTED_EDGE('',*,*,#560,.F.);
#729=ORIENTED_EDGE('',*,*,#541,.T.);
#730=ORIENTED_EDGE('',*,*,#556,.F.);
#731=ORIENTED_EDGE('',*,*,#557,.T.);
#732=ORIENTED_EDGE('',*,*,#499,.T.);
#733=ORIENTED_EDGE('',*,*,#489,.T.);
#734=ORIENTED_EDGE('',*,*,#519,.F.);
#735=ORIENTED_EDGE('',*,*,#471,.T.);
#736=ORIENTED_EDGE('',*,*,#484,.T.);
#737=ORIENTED_EDGE('',*,*,#558,.F.);
#738=ORIENTED_EDGE('',*,*,#537,.F.);
#739=ORIENTED_EDGE('',*,*,#543,.F.);
#740=ORIENTED_EDGE('',*,*,#561,.F.);
#741=ORIENTED_EDGE('',*,*,#554,.T.);
#742=ORIENTED_EDGE('',*,*,#562,.F.);
#743=ORIENTED_EDGE('',*,*,#506,.T.);
#744=ORIENTED_EDGE('',*,*,#473,.F.);
#745=ORIENTED_EDGE('',*,*,#521,.F.);
#746=ORIENTED_EDGE('',*,*,#563,.T.);
#747=ORIENTED_EDGE('',*,*,#513,.T.);
#748=ORIENTED_EDGE('',*,*,#501,.T.);
#749=ORIENTED_EDGE('',*,*,#564,.T.);
#750=ORIENTED_EDGE('',*,*,#565,.F.);
#751=ORIENTED_EDGE('',*,*,#564,.F.);
#752=ORIENTED_EDGE('',*,*,#549,.T.);
#753=ORIENTED_EDGE('',*,*,#495,.T.);
#754=ORIENTED_EDGE('',*,*,#539,.T.);
#755=ORIENTED_EDGE('',*,*,#560,.T.);
#756=ORIENTED_EDGE('',*,*,#546,.F.);
#757=ORIENTED_EDGE('',*,*,#566,.F.);
#758=ORIENTED_EDGE('',*,*,#565,.T.);
#759=ORIENTED_EDGE('',*,*,#567,.T.);
#760=ORIENTED_EDGE('',*,*,#566,.T.);
#761=ORIENTED_EDGE('',*,*,#567,.F.);
#762=ORIENTED_EDGE('',*,*,#552,.T.);
#763=ORIENTED_EDGE('',*,*,#561,.T.);
#764=ORIENTED_EDGE('',*,*,#542,.T.);
#765=ORIENTED_EDGE('',*,*,#531,.T.);
#766=ORIENTED_EDGE('',*,*,#548,.F.);
#767=ORIENTED_EDGE('',*,*,#568,.F.);
#768=ORIENTED_EDGE('',*,*,#485,.T.);
#769=ORIENTED_EDGE('',*,*,#569,.T.);
#770=ORIENTED_EDGE('',*,*,#570,.F.);
#771=ORIENTED_EDGE('',*,*,#569,.F.);
#772=ORIENTED_EDGE('',*,*,#570,.T.);
#773=ORIENTED_EDGE('',*,*,#571,.T.);
#774=ORIENTED_EDGE('',*,*,#568,.T.);
#775=ORIENTED_EDGE('',*,*,#571,.F.);
#776=ORIENTED_EDGE('',*,*,#527,.T.);
#777=ORIENTED_EDGE('',*,*,#572,.T.);
#778=ORIENTED_EDGE('',*,*,#480,.T.);
#779=ORIENTED_EDGE('',*,*,#573,.T.);
#780=ORIENTED_EDGE('',*,*,#574,.F.);
#781=ORIENTED_EDGE('',*,*,#465,.T.);
#782=ORIENTED_EDGE('',*,*,#481,.F.);
#783=ORIENTED_EDGE('',*,*,#572,.F.);
#784=ORIENTED_EDGE('',*,*,#526,.T.);
#785=ORIENTED_EDGE('',*,*,#522,.T.);
#786=ORIENTED_EDGE('',*,*,#517,.T.);
#787=ORIENTED_EDGE('',*,*,#475,.F.);
#788=ORIENTED_EDGE('',*,*,#508,.T.);
#789=ORIENTED_EDGE('',*,*,#524,.F.);
#790=ORIENTED_EDGE('',*,*,#528,.F.);
#791=ORIENTED_EDGE('',*,*,#573,.F.);
#792=ORIENTED_EDGE('',*,*,#479,.T.);
#793=ORIENTED_EDGE('',*,*,#551,.T.);
#794=ORIENTED_EDGE('',*,*,#559,.T.);
#795=ORIENTED_EDGE('',*,*,#514,.F.);
#796=ORIENTED_EDGE('',*,*,#563,.F.);
#797=ORIENTED_EDGE('',*,*,#520,.F.);
#798=ORIENTED_EDGE('',*,*,#562,.T.);
#799=ORIENTED_EDGE('',*,*,#553,.T.);
#800=ORIENTED_EDGE('',*,*,#529,.T.);
#801=ORIENTED_EDGE('',*,*,#509,.F.);
#802=ORIENTED_EDGE('',*,*,#504,.F.);
#803=ORIENTED_EDGE('',*,*,#512,.F.);
#804=ORIENTED_EDGE('',*,*,#497,.T.);
#805=ORIENTED_EDGE('',*,*,#463,.T.);
#806=ORIENTED_EDGE('',*,*,#575,.T.);
#807=ORIENTED_EDGE('',*,*,#575,.F.);
#808=ORIENTED_EDGE('',*,*,#576,.T.);
#809=ORIENTED_EDGE('',*,*,#574,.T.);
#810=ORIENTED_EDGE('',*,*,#576,.F.);
#811=CONICAL_SURFACE('',#871,2.,0.785398163397448);
#812=CONICAL_SURFACE('',#916,1.5,0.785398163397449);
#813=CONICAL_SURFACE('',#921,1.5,0.785398163397449);
#814=ADVANCED_FACE('',(#69),#811,.F.);
#815=ADVANCED_FACE('',(#70),#63,.F.);
#816=ADVANCED_FACE('',(#71,#17),#29,.T.);
#817=ADVANCED_FACE('',(#72),#30,.F.);
#818=ADVANCED_FACE('',(#73),#31,.F.);
#819=ADVANCED_FACE('',(#74,#18),#32,.F.);
#820=ADVANCED_FACE('',(#75),#33,.F.);
#821=ADVANCED_FACE('',(#76),#34,.T.);
#822=ADVANCED_FACE('',(#77,#19),#35,.F.);
#823=ADVANCED_FACE('',(#78),#36,.T.);
#824=ADVANCED_FACE('',(#79),#37,.T.);
#825=ADVANCED_FACE('',(#80),#38,.T.);
#826=ADVANCED_FACE('',(#81),#39,.T.);
#827=ADVANCED_FACE('',(#82),#40,.T.);
#828=ADVANCED_FACE('',(#83),#41,.T.);
#829=ADVANCED_FACE('',(#84),#42,.T.);
#830=ADVANCED_FACE('',(#85),#43,.F.);
#831=ADVANCED_FACE('',(#86),#44,.F.);
#832=ADVANCED_FACE('',(#87),#45,.T.);
#833=ADVANCED_FACE('',(#88,#20),#46,.T.);
#834=ADVANCED_FACE('',(#89),#47,.T.);
#835=ADVANCED_FACE('',(#90),#48,.T.);
#836=ADVANCED_FACE('',(#91),#64,.F.);
#837=ADVANCED_FACE('',(#92),#65,.F.);
#838=ADVANCED_FACE('',(#93),#49,.T.);
#839=ADVANCED_FACE('',(#94),#50,.T.);
#840=ADVANCED_FACE('',(#95,#21),#51,.T.);
#841=ADVANCED_FACE('',(#96),#52,.T.);
#842=ADVANCED_FACE('',(#97),#53,.T.);
#843=ADVANCED_FACE('',(#98),#54,.T.);
#844=ADVANCED_FACE('',(#99),#55,.T.);
#845=ADVANCED_FACE('',(#100),#56,.T.);
#846=ADVANCED_FACE('',(#101),#66,.F.);
#847=ADVANCED_FACE('',(#102,#22,#23),#57,.F.);
#848=ADVANCED_FACE('',(#103),#812,.F.);
#849=ADVANCED_FACE('',(#104,#24,#25),#58,.F.);
#850=ADVANCED_FACE('',(#105),#67,.F.);
#851=ADVANCED_FACE('',(#106),#813,.F.);
#852=ADVANCED_FACE('',(#107,#26),#59,.T.);
#853=ADVANCED_FACE('',(#108),#60,.F.);
#854=ADVANCED_FACE('',(#109),#61,.F.);
#855=ADVANCED_FACE('',(#110,#27,#28),#62,.T.);
#856=ADVANCED_FACE('',(#111),#68,.F.);
#857=CLOSED_SHELL('',(#814,#815,#816,#817,#818,#819,#820,#821,#822,#823,
#824,#825,#826,#827,#828,#829,#830,#831,#832,#833,#834,#835,#836,#837,#838,
#839,#840,#841,#842,#843,#844,#845,#846,#847,#848,#849,#850,#851,#852,#853,
#854,#855,#856));
#858=DERIVED_UNIT_ELEMENT(#860,1.);
#859=DERIVED_UNIT_ELEMENT(#1391,-3.);
#860=(
MASS_UNIT()
NAMED_UNIT(*)
SI_UNIT(.KILO.,.GRAM.)
);
#861=DERIVED_UNIT((#858,#859));
#862=MEASURE_REPRESENTATION_ITEM('density measure',
POSITIVE_RATIO_MEASURE(7850.),#861);
#863=PROPERTY_DEFINITION_REPRESENTATION(#868,#865);
#864=PROPERTY_DEFINITION_REPRESENTATION(#869,#866);
#865=REPRESENTATION('material name',(#867),#1388);
#866=REPRESENTATION('density',(#862),#1388);
#867=DESCRIPTIVE_REPRESENTATION_ITEM('Steel','Steel');
#868=PROPERTY_DEFINITION('material property','material name',#1398);
#869=PROPERTY_DEFINITION('material property','density of part',#1398);
#870=AXIS2_PLACEMENT_3D('',#1149,#929,#930);
#871=AXIS2_PLACEMENT_3D('',#1150,#931,#932);
#872=AXIS2_PLACEMENT_3D('',#1152,#933,#934);
#873=AXIS2_PLACEMENT_3D('',#1155,#936,#937);
#874=AXIS2_PLACEMENT_3D('',#1156,#938,#939);
#875=AXIS2_PLACEMENT_3D('',#1158,#940,#941);
#876=AXIS2_PLACEMENT_3D('',#1160,#943,#944);
#877=AXIS2_PLACEMENT_3D('',#1185,#957,#958);
#878=AXIS2_PLACEMENT_3D('',#1189,#961,#962);
#879=AXIS2_PLACEMENT_3D('',#1195,#966,#967);
#880=AXIS2_PLACEMENT_3D('',#1202,#971,#972);
#881=AXIS2_PLACEMENT_3D('',#1203,#973,#974);
#882=AXIS2_PLACEMENT_3D('',#1212,#979,#980);
#883=AXIS2_PLACEMENT_3D('',#1230,#990,#991);
#884=AXIS2_PLACEMENT_3D('',#1235,#994,#995);
#885=AXIS2_PLACEMENT_3D('',#1236,#996,#997);
#886=AXIS2_PLACEMENT_3D('',#1244,#1002,#1003);
#887=AXIS2_PLACEMENT_3D('',#1250,#1007,#1008);
#888=AXIS2_PLACEMENT_3D('',#1254,#1011,#1012);
#889=AXIS2_PLACEMENT_3D('',#1257,#1015,#1016);
#890=AXIS2_PLACEMENT_3D('',#1265,#1021,#1022);
#891=AXIS2_PLACEMENT_3D('',#1269,#1025,#1026);
#892=AXIS2_PLACEMENT_3D('',#1275,#1030,#1031);
#893=AXIS2_PLACEMENT_3D('',#1282,#1036,#1037);
#894=AXIS2_PLACEMENT_3D('',#1288,#1041,#1042);
#895=AXIS2_PLACEMENT_3D('',#1300,#1049,#1050);
#896=AXIS2_PLACEMENT_3D('',#1307,#1054,#1055);
#897=AXIS2_PLACEMENT_3D('',#1308,#1056,#1057);
#898=AXIS2_PLACEMENT_3D('',#1314,#1061,#1062);
#899=AXIS2_PLACEMENT_3D('',#1318,#1065,#1066);
#900=AXIS2_PLACEMENT_3D('',#1320,#1067,#1068);
#901=AXIS2_PLACEMENT_3D('',#1323,#1070,#1071);
#902=AXIS2_PLACEMENT_3D('',#1324,#1072,#1073);
#903=AXIS2_PLACEMENT_3D('',#1327,#1075,#1076);
#904=AXIS2_PLACEMENT_3D('',#1328,#1077,#1078);
#905=AXIS2_PLACEMENT_3D('',#1334,#1082,#1083);
#906=AXIS2_PLACEMENT_3D('',#1340,#1087,#1088);
#907=AXIS2_PLACEMENT_3D('',#1344,#1091,#1092);
#908=AXIS2_PLACEMENT_3D('',#1346,#1094,#1095);
#909=AXIS2_PLACEMENT_3D('',#1348,#1097,#1098);
#910=AXIS2_PLACEMENT_3D('',#1351,#1101,#1102);
#911=AXIS2_PLACEMENT_3D('',#1354,#1105,#1106);
#912=AXIS2_PLACEMENT_3D('',#1356,#1108,#1109);
#913=AXIS2_PLACEMENT_3D('',#1359,#1111,#1112);
#914=AXIS2_PLACEMENT_3D('',#1360,#1113,#1114);
#915=AXIS2_PLACEMENT_3D('',#1362,#1115,#1116);
#916=AXIS2_PLACEMENT_3D('',#1363,#1117,#1118);
#917=AXIS2_PLACEMENT_3D('',#1365,#1120,#1121);
#918=AXIS2_PLACEMENT_3D('',#1367,#1122,#1123);
#919=AXIS2_PLACEMENT_3D('',#1368,#1124,#1125);
#920=AXIS2_PLACEMENT_3D('',#1371,#1127,#1128);
#921=AXIS2_PLACEMENT_3D('',#1372,#1129,#1130);
#922=AXIS2_PLACEMENT_3D('',#1374,#1132,#1133);
#923=AXIS2_PLACEMENT_3D('',#1378,#1136,#1137);
#924=AXIS2_PLACEMENT_3D('',#1379,#1138,#1139);
#925=AXIS2_PLACEMENT_3D('',#1380,#1140,#1141);
#926=AXIS2_PLACEMENT_3D('',#1381,#1142,#1143);
#927=AXIS2_PLACEMENT_3D('',#1383,#1144,#1145);
#928=AXIS2_PLACEMENT_3D('',#1384,#1146,#1147);
#929=DIRECTION('axis',(0.,0.,1.));
#930=DIRECTION('refdir',(1.,0.,0.));
#931=DIRECTION('center_axis',(1.,0.,0.));
#932=DIRECTION('ref_axis',(0.,0.,1.));
#933=DIRECTION('center_axis',(-1.,0.,0.));
#934=DIRECTION('ref_axis',(0.,0.,1.));
#935=DIRECTION('',(0.707106781186548,-8.65956056235493E-17,-0.707106781186547));
#936=DIRECTION('center_axis',(1.,0.,0.));
#937=DIRECTION('ref_axis',(0.,0.,1.));
#938=DIRECTION('center_axis',(1.,0.,0.));
#939=DIRECTION('ref_axis',(0.,0.,1.));
#940=DIRECTION('center_axis',(1.,0.,0.));
#941=DIRECTION('ref_axis',(0.,0.,1.));
#942=DIRECTION('',(1.,0.,0.));
#943=DIRECTION('center_axis',(1.,0.,0.));
#944=DIRECTION('ref_axis',(0.,0.,-1.));
#945=DIRECTION('',(0.,0.,-1.));
#946=DIRECTION('',(0.,-1.,0.));
#947=DIRECTION('',(0.,0.,-1.));
#948=DIRECTION('',(0.,-0.707106781186547,0.707106781186548));
#949=DIRECTION('',(0.,0.,1.));
#950=DIRECTION('',(0.,1.,0.));
#951=DIRECTION('',(0.,0.,-1.));
#952=DIRECTION('',(0.,-0.707106781186548,-0.707106781186548));
#953=DIRECTION('',(0.,0.,1.));
#954=DIRECTION('',(0.,-1.,0.));
#955=DIRECTION('',(0.,0.,-1.));
#956=DIRECTION('',(0.,1.,0.));
#957=DIRECTION('center_axis',(0.,0.,-1.));
#958=DIRECTION('ref_axis',(-1.,0.,0.));
#959=DIRECTION('',(0.535052081184345,-0.844819075554229,0.));
#960=DIRECTION('',(-1.,0.,0.));
#961=DIRECTION('center_axis',(0.,0.,-1.));
#962=DIRECTION('ref_axis',(0.,1.,0.));
#963=DIRECTION('',(1.,0.,0.));
#964=DIRECTION('',(0.,1.,0.));
#965=DIRECTION('',(1.,0.,0.));
#966=DIRECTION('center_axis',(-0.844819075554229,-0.535052081184345,0.));
#967=DIRECTION('ref_axis',(0.535052081184345,-0.844819075554229,0.));
#968=DIRECTION('',(0.,0.,-1.));
#969=DIRECTION('',(0.535052081184345,-0.844819075554229,0.));
#970=DIRECTION('',(0.,0.,-1.));
#971=DIRECTION('center_axis',(0.844819075554229,0.535052081184345,0.));
#972=DIRECTION('ref_axis',(-0.535052081184345,0.844819075554229,0.));
#973=DIRECTION('center_axis',(0.,0.,1.));
#974=DIRECTION('ref_axis',(1.,0.,0.));
#975=DIRECTION('',(-0.535052081184345,0.844819075554229,0.));
#976=DIRECTION('',(1.,0.,0.));
#977=DIRECTION('',(0.,-1.,0.));
#978=DIRECTION('',(-1.,0.,0.));
#979=DIRECTION('center_axis',(0.,-1.,0.));
#980=DIRECTION('ref_axis',(0.,0.,-1.));
#981=DIRECTION('',(0.,0.,1.));
#982=DIRECTION('',(0.,0.,-1.));
#983=DIRECTION('',(1.,0.,0.));
#984=DIRECTION('',(0.,0.,-1.));
#985=DIRECTION('',(1.,0.,0.));
#986=DIRECTION('',(0.,0.,1.));
#987=DIRECTION('',(-1.,0.,0.));
#988=DIRECTION('',(0.,0.,1.));
#989=DIRECTION('',(-1.,0.,0.));
#990=DIRECTION('center_axis',(-0.844819075554229,-0.535052081184345,0.));
#991=DIRECTION('ref_axis',(0.535052081184345,-0.844819075554229,0.));
#992=DIRECTION('',(0.,0.,-1.));
#993=DIRECTION('',(-0.535052081184345,0.844819075554229,0.));
#994=DIRECTION('center_axis',(0.844819075554229,0.535052081184345,0.));
#995=DIRECTION('ref_axis',(-0.535052081184345,0.844819075554229,0.));
#996=DIRECTION('center_axis',(0.,-1.,0.));
#997=DIRECTION('ref_axis',(0.,0.,-1.));
#998=DIRECTION('',(1.,0.,0.));
#999=DIRECTION('',(1.,0.,0.));
#1000=DIRECTION('',(0.,0.,-1.));
#1001=DIRECTION('',(1.,0.,0.));
#1002=DIRECTION('center_axis',(0.,0.,1.));
#1003=DIRECTION('ref_axis',(0.,-1.,0.));
#1004=DIRECTION('',(1.,0.,0.));
#1005=DIRECTION('',(0.,1.,0.));
#1006=DIRECTION('',(-1.,0.,0.));
#1007=DIRECTION('center_axis',(0.,-0.707106781186548,-0.707106781186547));
#1008=DIRECTION('ref_axis',(-1.,0.,0.));
#1009=DIRECTION('',(0.,0.707106781186547,-0.707106781186548));
#1010=DIRECTION('',(1.,0.,0.));
#1011=DIRECTION('center_axis',(0.,-0.707106781186548,0.707106781186548));
#1012=DIRECTION('ref_axis',(1.,0.,0.));
#1013=DIRECTION('',(0.,0.707106781186548,0.707106781186548));
#1014=DIRECTION('',(0.,-0.707106781186548,-0.707106781186548));
#1015=DIRECTION('center_axis',(0.,0.707106781186548,0.707106781186547));
#1016=DIRECTION('ref_axis',(1.,0.,0.));
#1017=DIRECTION('',(1.,0.,0.));
#1018=DIRECTION('',(0.,-0.707106781186547,0.707106781186548));
#1019=DIRECTION('',(1.,0.,0.));
#1020=DIRECTION('',(0.,0.707106781186547,-0.707106781186548));
#1021=DIRECTION('center_axis',(0.,0.,1.));
#1022=DIRECTION('ref_axis',(0.,-1.,0.));
#1023=DIRECTION('',(1.,0.,0.));
#1024=DIRECTION('',(0.,1.,0.));
#1025=DIRECTION('center_axis',(0.,0.707106781186548,-0.707106781186548));
#1026=DIRECTION('ref_axis',(-1.,0.,0.));
#1027=DIRECTION('',(-1.,0.,0.));
#1028=DIRECTION('',(0.,0.707106781186548,0.707106781186548));
#1029=DIRECTION('',(1.,0.,0.));
#1030=DIRECTION('center_axis',(-1.,0.,0.));
#1031=DIRECTION('ref_axis',(0.,-1.,0.));
#1032=DIRECTION('',(0.,-7.93016446160826E-17,1.));
#1033=DIRECTION('',(0.,1.,0.));
#1034=DIRECTION('',(0.,7.93016446160826E-17,-1.));
#1035=DIRECTION('',(0.,0.,-1.));
#1036=DIRECTION('center_axis',(0.,0.,1.));
#1037=DIRECTION('ref_axis',(0.,-1.,0.));
#1038=DIRECTION('',(1.,0.,0.));
#1039=DIRECTION('',(0.,-1.,0.));
#1040=DIRECTION('',(1.,0.,0.));
#1041=DIRECTION('center_axis',(0.,-1.,0.));
#1042=DIRECTION('ref_axis',(0.,0.,-1.));
#1043=DIRECTION('',(0.,0.,1.));
#1044=DIRECTION('',(-1.,0.,0.));
#1045=DIRECTION('',(0.,0.,1.));
#1046=DIRECTION('',(1.,0.,0.));
#1047=DIRECTION('',(0.,0.,-1.));
#1048=DIRECTION('',(1.,0.,0.));
#1049=DIRECTION('center_axis',(1.,0.,0.));
#1050=DIRECTION('ref_axis',(0.,0.,-1.));
#1051=DIRECTION('',(0.,1.,0.));
#1052=DIRECTION('',(0.,1.,0.));
#1053=DIRECTION('',(0.,0.,1.));
#1054=DIRECTION('center_axis',(-1.,0.,0.));
#1055=DIRECTION('ref_axis',(0.,0.,-1.));
#1056=DIRECTION('center_axis',(0.,0.,1.));
#1057=DIRECTION('ref_axis',(0.,-1.,0.));
#1058=DIRECTION('',(0.,1.,0.));
#1059=DIRECTION('',(0.,-1.,0.));
#1060=DIRECTION('',(1.,0.,0.));
#1061=DIRECTION('center_axis',(0.,0.,-1.));
#1062=DIRECTION('ref_axis',(0.,1.,0.));
#1063=DIRECTION('',(0.,-1.,0.));
#1064=DIRECTION('',(1.,0.,0.));
#1065=DIRECTION('center_axis',(1.,0.,0.));
#1066=DIRECTION('ref_axis',(0.,0.,-1.));
#1067=DIRECTION('center_axis',(-1.,0.,0.));
#1068=DIRECTION('ref_axis',(0.,0.,-1.));
#1069=DIRECTION('',(-1.,0.,0.));
#1070=DIRECTION('center_axis',(1.,0.,0.));
#1071=DIRECTION('ref_axis',(0.,0.,-1.));
#1072=DIRECTION('center_axis',(1.,0.,0.));
#1073=DIRECTION('ref_axis',(0.,0.,-1.));
#1074=DIRECTION('',(-1.,0.,0.));
#1075=DIRECTION('center_axis',(1.,0.,0.));
#1076=DIRECTION('ref_axis',(0.,0.,-1.));
#1077=DIRECTION('center_axis',(0.,0.,1.));
#1078=DIRECTION('ref_axis',(0.,1.,0.));
#1079=DIRECTION('',(0.,-1.,0.));
#1080=DIRECTION('',(-1.,0.,0.));
#1081=DIRECTION('',(0.,1.,0.));
#1082=DIRECTION('center_axis',(0.,0.,-1.));
#1083=DIRECTION('ref_axis',(0.,-1.,0.));
#1084=DIRECTION('',(0.,1.,0.));
#1085=DIRECTION('',(0.,-1.,0.));
#1086=DIRECTION('',(-1.,0.,0.));
#1087=DIRECTION('center_axis',(1.,0.,0.));
#1088=DIRECTION('ref_axis',(0.,0.,-1.));
#1089=DIRECTION('',(0.,-1.,0.));
#1090=DIRECTION('',(0.,0.,1.));
#1091=DIRECTION('center_axis',(0.,0.,1.));
#1092=DIRECTION('ref_axis',(0.,-1.,0.));
#1093=DIRECTION('',(1.,0.,0.));
#1094=DIRECTION('center_axis',(0.,0.,-1.));
#1095=DIRECTION('ref_axis',(0.,1.,0.));
#1096=DIRECTION('',(1.,0.,0.));
#1097=DIRECTION('center_axis',(0.,1.,0.));
#1098=DIRECTION('ref_axis',(0.,0.,1.));
#1099=DIRECTION('',(0.,0.,-1.));
#1100=DIRECTION('',(0.,0.,-1.));
#1101=DIRECTION('center_axis',(0.,1.,0.));
#1102=DIRECTION('ref_axis',(0.,0.,1.));
#1103=DIRECTION('',(0.,0.,-1.));
#1104=DIRECTION('',(0.,0.,-1.));
#1105=DIRECTION('center_axis',(0.,1.,0.));
#1106=DIRECTION('ref_axis',(0.,0.,1.));
#1107=DIRECTION('',(0.,0.,1.));
#1108=DIRECTION('center_axis',(1.,0.,0.));
#1109=DIRECTION('ref_axis',(0.,0.,-1.));
#1110=DIRECTION('',(-1.,0.,0.));
#1111=DIRECTION('center_axis',(1.,0.,0.));
#1112=DIRECTION('ref_axis',(0.,0.,-1.));
#1113=DIRECTION('center_axis',(1.,0.,0.));
#1114=DIRECTION('ref_axis',(0.,0.,-1.));
#1115=DIRECTION('center_axis',(-1.,0.,0.));
#1116=DIRECTION('ref_axis',(0.,0.,-1.));
#1117=DIRECTION('center_axis',(-1.,0.,0.));
#1118=DIRECTION('ref_axis',(0.,0.,-1.));
#1119=DIRECTION('',(-0.707106781186547,-8.65956056235494E-17,0.707106781186548));
#1120=DIRECTION('center_axis',(1.,0.,0.));
#1121=DIRECTION('ref_axis',(0.,0.,-1.));
#1122=DIRECTION('center_axis',(-1.,0.,0.));
#1123=DIRECTION('ref_axis',(0.,0.,-1.));
#1124=DIRECTION('center_axis',(1.,0.,0.));
#1125=DIRECTION('ref_axis',(0.,0.,-1.));
#1126=DIRECTION('',(-1.,0.,0.));
#1127=DIRECTION('center_axis',(1.,0.,0.));
#1128=DIRECTION('ref_axis',(0.,0.,-1.));
#1129=DIRECTION('center_axis',(-1.,0.,0.));
#1130=DIRECTION('ref_axis',(0.,0.,-1.));
#1131=DIRECTION('',(-0.707106781186547,-8.65956056235494E-17,0.707106781186548));
#1132=DIRECTION('center_axis',(1.,0.,0.));
#1133=DIRECTION('ref_axis',(0.,0.,-1.));
#1134=DIRECTION('',(0.,7.93016446160826E-17,-1.));
#1135=DIRECTION('',(0.,-7.93016446160826E-17,1.));
#1136=DIRECTION('center_axis',(1.,0.,0.));
#1137=DIRECTION('ref_axis',(0.,0.,1.));
#1138=DIRECTION('center_axis',(0.,-1.,-7.93016446160826E-17));
#1139=DIRECTION('ref_axis',(0.,7.93016446160826E-17,-1.));
#1140=DIRECTION('center_axis',(0.,1.,7.93016446160826E-17));
#1141=DIRECTION('ref_axis',(0.,-7.93016446160826E-17,1.));
#1142=DIRECTION('center_axis',(-1.,0.,0.));
#1143=DIRECTION('ref_axis',(0.,0.,1.));
#1144=DIRECTION('center_axis',(1.,0.,0.));
#1145=DIRECTION('ref_axis',(0.,0.,1.));
#1146=DIRECTION('center_axis',(1.,0.,0.));
#1147=DIRECTION('ref_axis',(0.,0.,1.));
#1148=DIRECTION('',(1.,0.,0.));
#1149=CARTESIAN_POINT('',(0.,0.,0.));
#1150=CARTESIAN_POINT('Origin',(1.7,0.,-7.5));
#1151=CARTESIAN_POINT('',(1.2,-1.83697019872103E-16,-9.));
#1152=CARTESIAN_POINT('Origin',(1.2,0.,-7.5));
#1153=CARTESIAN_POINT('',(2.2,3.06161699786838E-16,-10.));
#1154=CARTESIAN_POINT('',(1.7,-2.44929359829471E-16,-9.5));
#1155=CARTESIAN_POINT('Origin',(2.2,0.,-7.5));
#1156=CARTESIAN_POINT('Origin',(-1.3,0.,-7.5));
#1157=CARTESIAN_POINT('',(-1.3,-1.83697019872103E-16,-9.));
#1158=CARTESIAN_POINT('Origin',(-1.3,0.,-7.5));
#1159=CARTESIAN_POINT('',(-1.3,1.83697019872103E-16,-9.));
#1160=CARTESIAN_POINT('Origin',(2.2,-3.5,0.));
#1161=CARTESIAN_POINT('',(2.2,-3.,5.));
#1162=CARTESIAN_POINT('',(2.2,-3.,-3.));
#1163=CARTESIAN_POINT('',(2.2,-3.,12.7));
#1164=CARTESIAN_POINT('',(2.2,-4.,5.));
#1165=CARTESIAN_POINT('',(2.2,4.,5.));
#1166=CARTESIAN_POINT('',(2.2,-4.,-5.));
#1167=CARTESIAN_POINT('',(2.2,-4.,5.));
#1168=CARTESIAN_POINT('',(2.2,-3.,-6.));
#1169=CARTESIAN_POINT('',(2.2,-4.875,-4.125));
#1170=CARTESIAN_POINT('',(2.2,-3.,-14.));
#1171=CARTESIAN_POINT('',(2.2,-3.,11.2));
#1172=CARTESIAN_POINT('',(2.2,3.,-14.));
#1173=CARTESIAN_POINT('',(2.2,-3.,-14.));
#1174=CARTESIAN_POINT('',(2.2,3.,-6.));
#1175=CARTESIAN_POINT('',(2.2,3.,-21.875));
#1176=CARTESIAN_POINT('',(2.2,4.,-5.));
#1177=CARTESIAN_POINT('',(2.2,4.875,-4.125));
#1178=CARTESIAN_POINT('',(2.2,4.,5.));
#1179=CARTESIAN_POINT('',(2.2,4.,-5.));
#1180=CARTESIAN_POINT('',(2.2,3.,5.));
#1181=CARTESIAN_POINT('',(2.2,4.,5.));
#1182=CARTESIAN_POINT('',(2.2,3.,-3.));
#1183=CARTESIAN_POINT('',(2.2,3.,-21.875));
#1184=CARTESIAN_POINT('',(2.2,-3.,-3.));
#1185=CARTESIAN_POINT('Origin',(4.1,-5.55111512312578E-16,-14.));
#1186=CARTESIAN_POINT('',(6.,-3.,-14.));
#1187=CARTESIAN_POINT('',(3.15,1.5,-14.));
#1188=CARTESIAN_POINT('',(2.05,-3.,-14.));
#1189=CARTESIAN_POINT('Origin',(0.25,-3.,-3.));
#1190=CARTESIAN_POINT('',(-0.15,3.,-3.));
#1191=CARTESIAN_POINT('',(0.25,3.,-3.));
#1192=CARTESIAN_POINT('',(-0.15,-3.,-3.));
#1193=CARTESIAN_POINT('',(-0.15,-1.5,-3.));
#1194=CARTESIAN_POINT('',(0.25,-3.,-3.));
#1195=CARTESIAN_POINT('Origin',(2.2,3.,-18.35));
#1196=CARTESIAN_POINT('',(6.,-3.,-18.35));
#1197=CARTESIAN_POINT('',(6.,-3.,25.4));
#1198=CARTESIAN_POINT('',(2.2,3.,-18.35));
#1199=CARTESIAN_POINT('',(3.38429817605075,1.13005551149881,-18.35));
#1200=CARTESIAN_POINT('',(2.2,3.,-21.875));
#1201=CARTESIAN_POINT('',(4.1,-7.65404249467096E-17,-14.25));
#1202=CARTESIAN_POINT('Origin',(4.1,0.,-15.5));
#1203=CARTESIAN_POINT('Origin',(3.10618720308693,-2.23517421238384E-8,14.));
#1204=CARTESIAN_POINT('',(6.00000002831221,-3.00000004470348,14.));
#1205=CARTESIAN_POINT('',(2.2,3.,14.));
#1206=CARTESIAN_POINT('',(3.00774527876878,1.7246127177335,14.));
#1207=CARTESIAN_POINT('',(1.35,-3.,14.));
#1208=CARTESIAN_POINT('',(1.55309360154346,-3.,14.));
#1209=CARTESIAN_POINT('',(1.35,3.,14.));
#1210=CARTESIAN_POINT('',(1.35,1.49999998882413,14.));
#1211=CARTESIAN_POINT('',(1.55309360154346,3.,14.));
#1212=CARTESIAN_POINT('Origin',(0.,-3.,25.4));
#1213=CARTESIAN_POINT('',(1.35,-3.,6.));
#1214=CARTESIAN_POINT('',(1.35,-3.,14.7));
#1215=CARTESIAN_POINT('',(6.,-3.,18.35));
#1216=CARTESIAN_POINT('',(6.,-3.,25.4));
#1217=CARTESIAN_POINT('',(0.5,-3.,18.35));
#1218=CARTESIAN_POINT('',(1.,-3.,18.35));
#1219=CARTESIAN_POINT('',(0.5,-3.,25.4));
#1220=CARTESIAN_POINT('',(0.5,-3.,12.7));
#1221=CARTESIAN_POINT('',(0.,-3.,25.4));
#1222=CARTESIAN_POINT('',(0.,-3.,25.4));
#1223=CARTESIAN_POINT('',(0.,-3.,11.5));
#1224=CARTESIAN_POINT('',(0.,-3.,-25.4));
#1225=CARTESIAN_POINT('',(-1.3,-3.,11.5));
#1226=CARTESIAN_POINT('',(0.,-3.,11.5));
#1227=CARTESIAN_POINT('',(-1.3,-3.,6.));
#1228=CARTESIAN_POINT('',(-1.3,-3.,-25.4));
#1229=CARTESIAN_POINT('',(-0.65,-3.,6.));
#1230=CARTESIAN_POINT('Origin',(2.2,3.,-18.35));
#1231=CARTESIAN_POINT('',(2.2,3.,18.35));
#1232=CARTESIAN_POINT('',(2.2,3.,-21.875));
#1233=CARTESIAN_POINT('',(2.02823156225218,3.27121332275972,18.35));
#1234=CARTESIAN_POINT('',(4.1,-7.65404249467096E-17,16.75));
#1235=CARTESIAN_POINT('Origin',(4.1,0.,15.5));
#1236=CARTESIAN_POINT('Origin',(-1.3,-4.,5.));
#1237=CARTESIAN_POINT('',(1.35,-4.,5.));
#1238=CARTESIAN_POINT('',(-1.3,-4.,5.));
#1239=CARTESIAN_POINT('',(-1.3,-4.,5.));
#1240=CARTESIAN_POINT('',(-1.3,-4.,5.));
#1241=CARTESIAN_POINT('',(-1.3,-4.,-5.));
#1242=CARTESIAN_POINT('',(-1.3,-4.,5.));
#1243=CARTESIAN_POINT('',(-1.3,-4.,-5.));
#1244=CARTESIAN_POINT('Origin',(-1.3,4.,5.));
#1245=CARTESIAN_POINT('',(1.35,4.,5.));
#1246=CARTESIAN_POINT('',(-1.3,4.,5.));
#1247=CARTESIAN_POINT('',(1.35,3.,5.));
#1248=CARTESIAN_POINT('',(1.35,3.5,5.));
#1249=CARTESIAN_POINT('',(-0.65,3.,5.));
#1250=CARTESIAN_POINT('Origin',(-0.65,-3.5,-5.5));
#1251=CARTESIAN_POINT('',(-1.3,-3.,-6.));
#1252=CARTESIAN_POINT('',(-1.3,-4.,-5.));
#1253=CARTESIAN_POINT('',(-0.65,-3.,-6.));
#1254=CARTESIAN_POINT('Origin',(-0.65,-3.5,5.5));
#1255=CARTESIAN_POINT('',(1.35,-2.25,6.75));
#1256=CARTESIAN_POINT('',(-1.3,-4.,5.));
#1257=CARTESIAN_POINT('Origin',(-0.65,3.5,5.5));
#1258=CARTESIAN_POINT('',(-1.3,4.,5.));
#1259=CARTESIAN_POINT('',(-1.3,4.,5.));
#1260=CARTESIAN_POINT('',(-1.3,3.,6.));
#1261=CARTESIAN_POINT('',(-1.3,4.,5.));
#1262=CARTESIAN_POINT('',(1.35,3.,6.));
#1263=CARTESIAN_POINT('',(-0.65,3.,6.));
#1264=CARTESIAN_POINT('',(1.35,3.75,5.25));
#1265=CARTESIAN_POINT('Origin',(-1.3,4.,5.));
#1266=CARTESIAN_POINT('',(1.35,-3.,5.));
#1267=CARTESIAN_POINT('',(-0.65,-3.,5.));
#1268=CARTESIAN_POINT('',(1.35,-5.55111512312578E-16,5.));
#1269=CARTESIAN_POINT('Origin',(-0.65,3.5,-5.5));
#1270=CARTESIAN_POINT('',(-1.3,3.,-6.));
#1271=CARTESIAN_POINT('',(-0.65,3.,-6.));
#1272=CARTESIAN_POINT('',(-1.3,4.,-5.));
#1273=CARTESIAN_POINT('',(-1.3,4.,-5.));
#1274=CARTESIAN_POINT('',(-1.3,4.,-5.));
#1275=CARTESIAN_POINT('Origin',(1.35,3.,4.));
#1276=CARTESIAN_POINT('',(1.35,-3.,4.));
#1277=CARTESIAN_POINT('',(1.35,-3.,4.));
#1278=CARTESIAN_POINT('',(1.35,3.,4.));
#1279=CARTESIAN_POINT('',(1.35,3.,4.));
#1280=CARTESIAN_POINT('',(1.35,3.,0.499999999999999));
#1281=CARTESIAN_POINT('',(1.35,3.,-10.7));
#1282=CARTESIAN_POINT('Origin',(0.25,3.,4.));
#1283=CARTESIAN_POINT('',(-0.15,-3.,4.));
#1284=CARTESIAN_POINT('',(0.25,-3.,4.));
#1285=CARTESIAN_POINT('',(-0.15,3.,4.));
#1286=CARTESIAN_POINT('',(-0.15,1.5,4.));
#1287=CARTESIAN_POINT('',(0.25,3.,4.));
#1288=CARTESIAN_POINT('Origin',(0.,-3.,25.4));
#1289=CARTESIAN_POINT('',(-1.3,-3.,-11.5));
#1290=CARTESIAN_POINT('',(-1.3,-3.,-25.4));
#1291=CARTESIAN_POINT('',(0.,-3.,-11.5));
#1292=CARTESIAN_POINT('',(0.,-3.,-11.5));
#1293=CARTESIAN_POINT('',(0.,-3.,-25.4));
#1294=CARTESIAN_POINT('',(0.,-3.,-25.4));
#1295=CARTESIAN_POINT('',(0.5,-3.,-25.4));
#1296=CARTESIAN_POINT('',(0.,-3.,-25.4));
#1297=CARTESIAN_POINT('',(0.5,-3.,-18.35));
#1298=CARTESIAN_POINT('',(0.5,-3.,12.7));
#1299=CARTESIAN_POINT('',(1.,-3.,-18.35));
#1300=CARTESIAN_POINT('Origin',(0.5,0.,0.));
#1301=CARTESIAN_POINT('',(0.5,3.,-18.35));
#1302=CARTESIAN_POINT('',(0.5,-1.5,-18.35));
#1303=CARTESIAN_POINT('',(0.5,3.,-25.4));
#1304=CARTESIAN_POINT('',(0.5,-1.5,-25.4));
#1305=CARTESIAN_POINT('',(0.5,3.,-12.7));
#1306=CARTESIAN_POINT('',(0.5,1.46957615897682E-16,-20.8));
#1307=CARTESIAN_POINT('Origin',(0.5,0.,-22.));
#1308=CARTESIAN_POINT('Origin',(0.,3.,25.4));
#1309=CARTESIAN_POINT('',(0.,3.,25.4));
#1310=CARTESIAN_POINT('',(0.,-3.,25.4));
#1311=CARTESIAN_POINT('',(0.5,3.,25.4));
#1312=CARTESIAN_POINT('',(0.5,1.5,25.4));
#1313=CARTESIAN_POINT('',(0.,3.,25.4));
#1314=CARTESIAN_POINT('Origin',(0.,-3.,-25.4));
#1315=CARTESIAN_POINT('',(0.,3.,-25.4));
#1316=CARTESIAN_POINT('',(0.,3.,-25.4));
#1317=CARTESIAN_POINT('',(0.,3.,-25.4));
#1318=CARTESIAN_POINT('Origin',(0.,0.,22.));
#1319=CARTESIAN_POINT('',(0.5,1.46957615897682E-16,23.2));
#1320=CARTESIAN_POINT('Origin',(0.5,0.,22.));
#1321=CARTESIAN_POINT('',(0.,-1.46957615897682E-16,23.2));
#1322=CARTESIAN_POINT('',(0.,-1.46957615897682E-16,23.2));
#1323=CARTESIAN_POINT('Origin',(0.,0.,22.));
#1324=CARTESIAN_POINT('Origin',(0.,0.,-22.));
#1325=CARTESIAN_POINT('',(0.,-1.46957615897682E-16,-20.8));
#1326=CARTESIAN_POINT('',(0.,-1.46957615897682E-16,-20.8));
#1327=CARTESIAN_POINT('Origin',(0.,0.,-22.));
#1328=CARTESIAN_POINT('Origin',(0.,-3.,11.5));
#1329=CARTESIAN_POINT('',(0.,3.,11.5));
#1330=CARTESIAN_POINT('',(0.,-1.5,11.5));
#1331=CARTESIAN_POINT('',(-1.3,3.,11.5));
#1332=CARTESIAN_POINT('',(0.,3.,11.5));
#1333=CARTESIAN_POINT('',(-1.3,3.,11.5));
#1334=CARTESIAN_POINT('Origin',(0.,3.,-11.5));
#1335=CARTESIAN_POINT('',(0.,3.,-11.5));
#1336=CARTESIAN_POINT('',(0.,1.5,-11.5));
#1337=CARTESIAN_POINT('',(-1.3,3.,-11.5));
#1338=CARTESIAN_POINT('',(-1.3,3.,-11.5));
#1339=CARTESIAN_POINT('',(0.,3.,-11.5));
#1340=CARTESIAN_POINT('Origin',(0.5,0.,0.));
#1341=CARTESIAN_POINT('',(0.5,3.,18.35));
#1342=CARTESIAN_POINT('',(0.5,1.5,18.35));
#1343=CARTESIAN_POINT('',(0.5,3.,-12.7));
#1344=CARTESIAN_POINT('Origin',(1.,3.,18.35));
#1345=CARTESIAN_POINT('',(1.,3.,18.35));
#1346=CARTESIAN_POINT('Origin',(1.,-3.,-18.35));
#1347=CARTESIAN_POINT('',(1.,3.,-18.35));
#1348=CARTESIAN_POINT('Origin',(0.,3.,-25.4));
#1349=CARTESIAN_POINT('',(-1.3,3.,25.4));
#1350=CARTESIAN_POINT('',(0.,3.,25.4));
#1351=CARTESIAN_POINT('Origin',(0.,3.,-25.4));
#1352=CARTESIAN_POINT('',(0.,3.,25.4));
#1353=CARTESIAN_POINT('',(-1.3,3.,25.4));
#1354=CARTESIAN_POINT('Origin',(-1.3,4.,-5.));
#1355=CARTESIAN_POINT('',(-1.3,4.,-5.));
#1356=CARTESIAN_POINT('Origin',(0.,0.,15.5));
#1357=CARTESIAN_POINT('',(0.5,-1.53080849893419E-16,16.75));
#1358=CARTESIAN_POINT('',(0.,-1.53080849893419E-16,16.75));
#1359=CARTESIAN_POINT('Origin',(0.5,0.,15.5));
#1360=CARTESIAN_POINT('Origin',(0.,0.,0.));
#1361=CARTESIAN_POINT('',(0.,2.14313189850787E-16,17.25));
#1362=CARTESIAN_POINT('Origin',(0.,0.,15.5));
#1363=CARTESIAN_POINT('Origin',(0.25,0.,15.5));
#1364=CARTESIAN_POINT('',(0.25,-1.83697019872103E-16,17.));
#1365=CARTESIAN_POINT('Origin',(0.,0.,0.));
#1366=CARTESIAN_POINT('',(0.,2.14313189850787E-16,-13.75));
#1367=CARTESIAN_POINT('Origin',(0.,0.,-15.5));
#1368=CARTESIAN_POINT('Origin',(0.,0.,-15.5));
#1369=CARTESIAN_POINT('',(0.5,-1.53080849893419E-16,-14.25));
#1370=CARTESIAN_POINT('',(0.,-1.53080849893419E-16,-14.25));
#1371=CARTESIAN_POINT('Origin',(0.5,0.,-15.5));
#1372=CARTESIAN_POINT('Origin',(0.25,0.,-15.5));
#1373=CARTESIAN_POINT('',(0.25,-1.83697019872103E-16,-14.));
#1374=CARTESIAN_POINT('Origin',(-0.15,-1.11022302462516E-15,0.499999999999999));
#1375=CARTESIAN_POINT('',(-0.15,-3.,2.25));
#1376=CARTESIAN_POINT('',(-0.15,3.,-1.25));
#1377=CARTESIAN_POINT('',(-0.15,-8.34677494817002E-16,-2.25));
#1378=CARTESIAN_POINT('Origin',(-0.15,-1.11022302462516E-15,-5.55111512312578E-16));
#1379=CARTESIAN_POINT('Origin',(0.25,-3.,4.));
#1380=CARTESIAN_POINT('Origin',(0.25,3.,-3.));
#1381=CARTESIAN_POINT('Origin',(-1.3,0.,0.));
#1382=CARTESIAN_POINT('',(-1.3,-1.38576855443331E-15,-2.25));
#1383=CARTESIAN_POINT('Origin',(-1.3,-1.11022302462516E-15,-5.55111512312578E-16));
#1384=CARTESIAN_POINT('Origin',(-1.3,-1.11022302462516E-15,-5.55111512312578E-16));
#1385=CARTESIAN_POINT('',(-1.3,-8.34677494817002E-16,-2.25));
#1386=UNCERTAINTY_MEASURE_WITH_UNIT(LENGTH_MEASURE(0.01),#1390,
'DISTANCE_ACCURACY_VALUE',
'Maximum model space distance between geometric entities at asserted c
onnectivities');
#1387=UNCERTAINTY_MEASURE_WITH_UNIT(LENGTH_MEASURE(0.01),#1390,
'DISTANCE_ACCURACY_VALUE',
'Maximum model space distance between geometric entities at asserted c
onnectivities');
#1388=(
GEOMETRIC_REPRESENTATION_CONTEXT(3)
GLOBAL_UNCERTAINTY_ASSIGNED_CONTEXT((#1386))
GLOBAL_UNIT_ASSIGNED_CONTEXT((#1390,#1392,#1393))
REPRESENTATION_CONTEXT('','3D')
);
#1389=(
GEOMETRIC_REPRESENTATION_CONTEXT(3)
GLOBAL_UNCERTAINTY_ASSIGNED_CONTEXT((#1387))
GLOBAL_UNIT_ASSIGNED_CONTEXT((#1390,#1392,#1393))
REPRESENTATION_CONTEXT('','3D')
);
#1390=(
LENGTH_UNIT()
NAMED_UNIT(*)
SI_UNIT(.MILLI.,.METRE.)
);
#1391=(
LENGTH_UNIT()
NAMED_UNIT(*)
SI_UNIT($,.METRE.)
);
#1392=(
NAMED_UNIT(*)
PLANE_ANGLE_UNIT()
SI_UNIT($,.RADIAN.)
);
#1393=(
NAMED_UNIT(*)
SI_UNIT($,.STERADIAN.)
SOLID_ANGLE_UNIT()
);
#1394=SHAPE_DEFINITION_REPRESENTATION(#1395,#1396);
#1395=PRODUCT_DEFINITION_SHAPE('',$,#1398);
#1396=SHAPE_REPRESENTATION('',(#870),#1388);
#1397=PRODUCT_DEFINITION_CONTEXT('part definition',#1402,'design');
#1398=PRODUCT_DEFINITION('MAC27DISPLAY_r1820','MAC27DISPLAY_r1820 v32',
#1399,#1397);
#1399=PRODUCT_DEFINITION_FORMATION('',$,#1404);
#1400=PRODUCT_RELATED_PRODUCT_CATEGORY('MAC27DISPLAY_r1820 v32',
'MAC27DISPLAY_r1820 v32',(#1404));
#1401=APPLICATION_PROTOCOL_DEFINITION('international standard',
'automotive_design',2009,#1402);
#1402=APPLICATION_CONTEXT(
'Core Data for Automotive Mechanical Design Process');
#1403=PRODUCT_CONTEXT('part definition',#1402,'mechanical');
#1404=PRODUCT('MAC27DISPLAY_r1820','MAC27DISPLAY_r1820 v32',$,(#1403));
#1405=PRESENTATION_STYLE_ASSIGNMENT((#1406));
#1406=SURFACE_STYLE_USAGE(.BOTH.,#1407);
#1407=SURFACE_SIDE_STYLE('',(#1408));
#1408=SURFACE_STYLE_FILL_AREA(#1409);
#1409=FILL_AREA_STYLE('Steel - Satin',(#1410));
#1410=FILL_AREA_STYLE_COLOUR('Steel - Satin',#1411);
#1411=COLOUR_RGB('Steel - Satin',0.627450980392157,0.627450980392157,0.627450980392157);
ENDSEC;
END-ISO-10303-21;
