ISO-10303-21;
HEADER;
/* Generated by software containing ST-Developer
 * from STEP Tools, Inc. (www.steptools.com) 
 */

FILE_DESCRIPTION(
/* description */ (''),
/* implementation_level */ '2;1');

FILE_NAME(
/* name */ 'Cleanbutton.step',
/* time_stamp */ '2026-09-13T11:30:04+03:00',
/* author */ (''),
/* organization */ (''),
/* preprocessor_version */ 'ST-DEVELOPER v20.1',
/* originating_system */ 'Autodesk Translation Framework v15.8.0.0',
/* authorisation */ '');

FILE_SCHEMA (('AUTOMOTIVE_DESIGN { 1 0 10303 214 3 1 1 }'));
ENDSEC;

DATA;
#10=MECHANICAL_DESIGN_GEOMETRIC_PRESENTATION_REPRESENTATION('',(#13),#655);
#11=SHAPE_REPRESENTATION_RELATIONSHIP('SRR','None',#662,#12);
#12=ADVANCED_BREP_SHAPE_REPRESENTATION('',(#14),#654);
#13=STYLED_ITEM('',(#671),#14);
#14=MANIFOLD_SOLID_BREP('button_ON',#393);
#15=FACE_BOUND('',#66,.T.);
#16=FACE_BOUND('',#74,.T.);
#17=PLANE('',#410);
#18=PLANE('',#411);
#19=PLANE('',#417);
#20=PLANE('',#420);
#21=PLANE('',#423);
#22=PLANE('',#424);
#23=PLANE('',#425);
#24=PLANE('',#426);
#25=PLANE('',#427);
#26=PLANE('',#428);
#27=PLANE('',#429);
#28=PLANE('',#430);
#29=PLANE('',#431);
#30=PLANE('',#432);
#31=PLANE('',#433);
#32=PLANE('',#434);
#33=PLANE('',#435);
#34=PLANE('',#436);
#35=FACE_OUTER_BOUND('',#57,.T.);
#36=FACE_OUTER_BOUND('',#58,.T.);
#37=FACE_OUTER_BOUND('',#59,.T.);
#38=FACE_OUTER_BOUND('',#60,.T.);
#39=FACE_OUTER_BOUND('',#61,.T.);
#40=FACE_OUTER_BOUND('',#62,.T.);
#41=FACE_OUTER_BOUND('',#63,.T.);
#42=FACE_OUTER_BOUND('',#64,.T.);
#43=FACE_OUTER_BOUND('',#65,.T.);
#44=FACE_OUTER_BOUND('',#67,.T.);
#45=FACE_OUTER_BOUND('',#68,.T.);
#46=FACE_OUTER_BOUND('',#69,.T.);
#47=FACE_OUTER_BOUND('',#70,.T.);
#48=FACE_OUTER_BOUND('',#71,.T.);
#49=FACE_OUTER_BOUND('',#72,.T.);
#50=FACE_OUTER_BOUND('',#73,.T.);
#51=FACE_OUTER_BOUND('',#75,.T.);
#52=FACE_OUTER_BOUND('',#76,.T.);
#53=FACE_OUTER_BOUND('',#77,.T.);
#54=FACE_OUTER_BOUND('',#78,.T.);
#55=FACE_OUTER_BOUND('',#79,.T.);
#56=FACE_OUTER_BOUND('',#80,.T.);
#57=EDGE_LOOP('',(#263,#264,#265,#266));
#58=EDGE_LOOP('',(#267,#268,#269,#270));
#59=EDGE_LOOP('',(#271,#272,#273,#274,#275,#276,#277,#278));
#60=EDGE_LOOP('',(#279,#280,#281,#282));
#61=EDGE_LOOP('',(#283,#284,#285,#286));
#62=EDGE_LOOP('',(#287,#288,#289,#290));
#63=EDGE_LOOP('',(#291,#292,#293,#294));
#64=EDGE_LOOP('',(#295,#296,#297,#298));
#65=EDGE_LOOP('',(#299,#300,#301,#302));
#66=EDGE_LOOP('',(#303,#304,#305,#306,#307,#308,#309,#310));
#67=EDGE_LOOP('',(#311,#312,#313,#314));
#68=EDGE_LOOP('',(#315,#316,#317,#318));
#69=EDGE_LOOP('',(#319,#320,#321));
#70=EDGE_LOOP('',(#322,#323,#324));
#71=EDGE_LOOP('',(#325,#326,#327,#328,#329,#330));
#72=EDGE_LOOP('',(#331,#332,#333));
#73=EDGE_LOOP('',(#334,#335,#336,#337));
#74=EDGE_LOOP('',(#338,#339,#340,#341,#342,#343));
#75=EDGE_LOOP('',(#344,#345,#346,#347));
#76=EDGE_LOOP('',(#348,#349,#350,#351));
#77=EDGE_LOOP('',(#352,#353,#354,#355));
#78=EDGE_LOOP('',(#356,#357,#358,#359));
#79=EDGE_LOOP('',(#360,#361,#362,#363));
#80=EDGE_LOOP('',(#364,#365,#366));
#81=ELLIPSE('',#409,1.01068165504663,1.);
#82=ELLIPSE('',#416,1.01068165504663,1.);
#83=ELLIPSE('',#419,1.01068165504663,1.);
#84=ELLIPSE('',#422,1.01068165504663,1.);
#85=LINE('',#549,#129);
#86=LINE('',#552,#130);
#87=LINE('',#555,#131);
#88=LINE('',#557,#132);
#89=LINE('',#558,#133);
#90=LINE('',#561,#134);
#91=LINE('',#565,#135);
#92=LINE('',#569,#136);
#93=LINE('',#573,#137);
#94=LINE('',#577,#138);
#95=LINE('',#578,#139);
#96=LINE('',#581,#140);
#97=LINE('',#585,#141);
#98=LINE('',#586,#142);
#99=LINE('',#589,#143);
#100=LINE('',#594,#144);
#101=LINE('',#596,#145);
#102=LINE('',#598,#146);
#103=LINE('',#599,#147);
#104=LINE('',#600,#148);
#105=LINE('',#605,#149);
#106=LINE('',#607,#150);
#107=LINE('',#609,#151);
#108=LINE('',#610,#152);
#109=LINE('',#613,#153);
#110=LINE('',#614,#154);
#111=LINE('',#617,#155);
#112=LINE('',#618,#156);
#113=LINE('',#621,#157);
#114=LINE('',#623,#158);
#115=LINE('',#624,#159);
#116=LINE('',#627,#160);
#117=LINE('',#628,#161);
#118=LINE('',#632,#162);
#119=LINE('',#634,#163);
#120=LINE('',#636,#164);
#121=LINE('',#637,#165);
#122=LINE('',#639,#166);
#123=LINE('',#640,#167);
#124=LINE('',#642,#168);
#125=LINE('',#643,#169);
#126=LINE('',#645,#170);
#127=LINE('',#647,#171);
#128=LINE('',#650,#172);
#129=VECTOR('',#443,10.);
#130=VECTOR('',#446,10.);
#131=VECTOR('',#449,10.);
#132=VECTOR('',#450,10.);
#133=VECTOR('',#451,10.);
#134=VECTOR('',#454,10.);
#135=VECTOR('',#457,10.);
#136=VECTOR('',#460,10.);
#137=VECTOR('',#465,10.);
#138=VECTOR('',#470,10.);
#139=VECTOR('',#471,10.);
#140=VECTOR('',#474,10.);
#141=VECTOR('',#479,10.);
#142=VECTOR('',#480,10.);
#143=VECTOR('',#483,10.);
#144=VECTOR('',#488,10.);
#145=VECTOR('',#489,10.);
#146=VECTOR('',#490,10.);
#147=VECTOR('',#491,10.);
#148=VECTOR('',#492,10.);
#149=VECTOR('',#497,10.);
#150=VECTOR('',#498,10.);
#151=VECTOR('',#499,10.);
#152=VECTOR('',#500,10.);
#153=VECTOR('',#503,10.);
#154=VECTOR('',#504,10.);
#155=VECTOR('',#507,10.);
#156=VECTOR('',#508,10.);
#157=VECTOR('',#511,10.);
#158=VECTOR('',#512,10.);
#159=VECTOR('',#513,10.);
#160=VECTOR('',#516,10.);
#161=VECTOR('',#517,10.);
#162=VECTOR('',#520,10.);
#163=VECTOR('',#521,10.);
#164=VECTOR('',#522,10.);
#165=VECTOR('',#523,10.);
#166=VECTOR('',#524,10.);
#167=VECTOR('',#525,10.);
#168=VECTOR('',#528,10.);
#169=VECTOR('',#529,10.);
#170=VECTOR('',#532,10.);
#171=VECTOR('',#535,10.);
#172=VECTOR('',#540,10.);
#173=CIRCLE('',#408,1.);
#174=CIRCLE('',#412,1.);
#175=CIRCLE('',#413,1.);
#176=CIRCLE('',#414,1.);
#177=VERTEX_POINT('',#545);
#178=VERTEX_POINT('',#546);
#179=VERTEX_POINT('',#548);
#180=VERTEX_POINT('',#550);
#181=VERTEX_POINT('',#554);
#182=VERTEX_POINT('',#556);
#183=VERTEX_POINT('',#560);
#184=VERTEX_POINT('',#562);
#185=VERTEX_POINT('',#564);
#186=VERTEX_POINT('',#566);
#187=VERTEX_POINT('',#568);
#188=VERTEX_POINT('',#572);
#189=VERTEX_POINT('',#576);
#190=VERTEX_POINT('',#580);
#191=VERTEX_POINT('',#584);
#192=VERTEX_POINT('',#588);
#193=VERTEX_POINT('',#592);
#194=VERTEX_POINT('',#593);
#195=VERTEX_POINT('',#595);
#196=VERTEX_POINT('',#597);
#197=VERTEX_POINT('',#603);
#198=VERTEX_POINT('',#604);
#199=VERTEX_POINT('',#606);
#200=VERTEX_POINT('',#608);
#201=VERTEX_POINT('',#612);
#202=VERTEX_POINT('',#616);
#203=VERTEX_POINT('',#620);
#204=VERTEX_POINT('',#622);
#205=VERTEX_POINT('',#626);
#206=VERTEX_POINT('',#630);
#207=VERTEX_POINT('',#631);
#208=VERTEX_POINT('',#633);
#209=VERTEX_POINT('',#635);
#210=VERTEX_POINT('',#638);
#211=EDGE_CURVE('',#177,#178,#173,.T.);
#212=EDGE_CURVE('',#178,#179,#85,.T.);
#213=EDGE_CURVE('',#179,#180,#81,.F.);
#214=EDGE_CURVE('',#180,#177,#86,.T.);
#215=EDGE_CURVE('',#181,#178,#87,.F.);
#216=EDGE_CURVE('',#182,#181,#88,.T.);
#217=EDGE_CURVE('',#182,#179,#89,.T.);
#218=EDGE_CURVE('',#177,#183,#90,.F.);
#219=EDGE_CURVE('',#184,#183,#174,.T.);
#220=EDGE_CURVE('',#184,#185,#91,.F.);
#221=EDGE_CURVE('',#186,#185,#175,.T.);
#222=EDGE_CURVE('',#186,#187,#92,.F.);
#223=EDGE_CURVE('',#181,#187,#176,.T.);
#224=EDGE_CURVE('',#187,#188,#93,.T.);
#225=EDGE_CURVE('',#188,#182,#82,.F.);
#226=EDGE_CURVE('',#189,#186,#94,.T.);
#227=EDGE_CURVE('',#189,#188,#95,.T.);
#228=EDGE_CURVE('',#185,#190,#96,.T.);
#229=EDGE_CURVE('',#190,#189,#83,.F.);
#230=EDGE_CURVE('',#191,#184,#97,.T.);
#231=EDGE_CURVE('',#191,#190,#98,.T.);
#232=EDGE_CURVE('',#183,#192,#99,.T.);
#233=EDGE_CURVE('',#192,#191,#84,.F.);
#234=EDGE_CURVE('',#193,#194,#100,.T.);
#235=EDGE_CURVE('',#194,#195,#101,.T.);
#236=EDGE_CURVE('',#195,#196,#102,.T.);
#237=EDGE_CURVE('',#196,#193,#103,.T.);
#238=EDGE_CURVE('',#180,#192,#104,.T.);
#239=EDGE_CURVE('',#197,#198,#105,.T.);
#240=EDGE_CURVE('',#198,#199,#106,.T.);
#241=EDGE_CURVE('',#199,#200,#107,.T.);
#242=EDGE_CURVE('',#197,#200,#108,.T.);
#243=EDGE_CURVE('',#201,#197,#109,.T.);
#244=EDGE_CURVE('',#200,#201,#110,.T.);
#245=EDGE_CURVE('',#198,#202,#111,.T.);
#246=EDGE_CURVE('',#202,#199,#112,.T.);
#247=EDGE_CURVE('',#203,#202,#113,.T.);
#248=EDGE_CURVE('',#204,#203,#114,.F.);
#249=EDGE_CURVE('',#201,#204,#115,.T.);
#250=EDGE_CURVE('',#204,#205,#116,.T.);
#251=EDGE_CURVE('',#205,#201,#117,.T.);
#252=EDGE_CURVE('',#206,#207,#118,.T.);
#253=EDGE_CURVE('',#207,#208,#119,.T.);
#254=EDGE_CURVE('',#208,#209,#120,.T.);
#255=EDGE_CURVE('',#209,#206,#121,.T.);
#256=EDGE_CURVE('',#210,#205,#122,.T.);
#257=EDGE_CURVE('',#202,#210,#123,.T.);
#258=EDGE_CURVE('',#194,#206,#124,.T.);
#259=EDGE_CURVE('',#195,#209,#125,.T.);
#260=EDGE_CURVE('',#196,#208,#126,.T.);
#261=EDGE_CURVE('',#193,#207,#127,.T.);
#262=EDGE_CURVE('',#210,#203,#128,.T.);
#263=ORIENTED_EDGE('',*,*,#211,.T.);
#264=ORIENTED_EDGE('',*,*,#212,.T.);
#265=ORIENTED_EDGE('',*,*,#213,.T.);
#266=ORIENTED_EDGE('',*,*,#214,.T.);
#267=ORIENTED_EDGE('',*,*,#212,.F.);
#268=ORIENTED_EDGE('',*,*,#215,.F.);
#269=ORIENTED_EDGE('',*,*,#216,.F.);
#270=ORIENTED_EDGE('',*,*,#217,.T.);
#271=ORIENTED_EDGE('',*,*,#211,.F.);
#272=ORIENTED_EDGE('',*,*,#218,.T.);
#273=ORIENTED_EDGE('',*,*,#219,.F.);
#274=ORIENTED_EDGE('',*,*,#220,.T.);
#275=ORIENTED_EDGE('',*,*,#221,.F.);
#276=ORIENTED_EDGE('',*,*,#222,.T.);
#277=ORIENTED_EDGE('',*,*,#223,.F.);
#278=ORIENTED_EDGE('',*,*,#215,.T.);
#279=ORIENTED_EDGE('',*,*,#223,.T.);
#280=ORIENTED_EDGE('',*,*,#224,.T.);
#281=ORIENTED_EDGE('',*,*,#225,.T.);
#282=ORIENTED_EDGE('',*,*,#216,.T.);
#283=ORIENTED_EDGE('',*,*,#224,.F.);
#284=ORIENTED_EDGE('',*,*,#222,.F.);
#285=ORIENTED_EDGE('',*,*,#226,.F.);
#286=ORIENTED_EDGE('',*,*,#227,.T.);
#287=ORIENTED_EDGE('',*,*,#221,.T.);
#288=ORIENTED_EDGE('',*,*,#228,.T.);
#289=ORIENTED_EDGE('',*,*,#229,.T.);
#290=ORIENTED_EDGE('',*,*,#226,.T.);
#291=ORIENTED_EDGE('',*,*,#228,.F.);
#292=ORIENTED_EDGE('',*,*,#220,.F.);
#293=ORIENTED_EDGE('',*,*,#230,.F.);
#294=ORIENTED_EDGE('',*,*,#231,.T.);
#295=ORIENTED_EDGE('',*,*,#219,.T.);
#296=ORIENTED_EDGE('',*,*,#232,.T.);
#297=ORIENTED_EDGE('',*,*,#233,.T.);
#298=ORIENTED_EDGE('',*,*,#230,.T.);
#299=ORIENTED_EDGE('',*,*,#234,.T.);
#300=ORIENTED_EDGE('',*,*,#235,.T.);
#301=ORIENTED_EDGE('',*,*,#236,.T.);
#302=ORIENTED_EDGE('',*,*,#237,.T.);
#303=ORIENTED_EDGE('',*,*,#227,.F.);
#304=ORIENTED_EDGE('',*,*,#229,.F.);
#305=ORIENTED_EDGE('',*,*,#231,.F.);
#306=ORIENTED_EDGE('',*,*,#233,.F.);
#307=ORIENTED_EDGE('',*,*,#238,.F.);
#308=ORIENTED_EDGE('',*,*,#213,.F.);
#309=ORIENTED_EDGE('',*,*,#217,.F.);
#310=ORIENTED_EDGE('',*,*,#225,.F.);
#311=ORIENTED_EDGE('',*,*,#214,.F.);
#312=ORIENTED_EDGE('',*,*,#238,.T.);
#313=ORIENTED_EDGE('',*,*,#232,.F.);
#314=ORIENTED_EDGE('',*,*,#218,.F.);
#315=ORIENTED_EDGE('',*,*,#239,.T.);
#316=ORIENTED_EDGE('',*,*,#240,.T.);
#317=ORIENTED_EDGE('',*,*,#241,.T.);
#318=ORIENTED_EDGE('',*,*,#242,.F.);
#319=ORIENTED_EDGE('',*,*,#243,.T.);
#320=ORIENTED_EDGE('',*,*,#242,.T.);
#321=ORIENTED_EDGE('',*,*,#244,.T.);
#322=ORIENTED_EDGE('',*,*,#245,.T.);
#323=ORIENTED_EDGE('',*,*,#246,.T.);
#324=ORIENTED_EDGE('',*,*,#240,.F.);
#325=ORIENTED_EDGE('',*,*,#244,.F.);
#326=ORIENTED_EDGE('',*,*,#241,.F.);
#327=ORIENTED_EDGE('',*,*,#246,.F.);
#328=ORIENTED_EDGE('',*,*,#247,.F.);
#329=ORIENTED_EDGE('',*,*,#248,.F.);
#330=ORIENTED_EDGE('',*,*,#249,.F.);
#331=ORIENTED_EDGE('',*,*,#249,.T.);
#332=ORIENTED_EDGE('',*,*,#250,.T.);
#333=ORIENTED_EDGE('',*,*,#251,.T.);
#334=ORIENTED_EDGE('',*,*,#252,.T.);
#335=ORIENTED_EDGE('',*,*,#253,.T.);
#336=ORIENTED_EDGE('',*,*,#254,.T.);
#337=ORIENTED_EDGE('',*,*,#255,.T.);
#338=ORIENTED_EDGE('',*,*,#239,.F.);
#339=ORIENTED_EDGE('',*,*,#243,.F.);
#340=ORIENTED_EDGE('',*,*,#251,.F.);
#341=ORIENTED_EDGE('',*,*,#256,.F.);
#342=ORIENTED_EDGE('',*,*,#257,.F.);
#343=ORIENTED_EDGE('',*,*,#245,.F.);
#344=ORIENTED_EDGE('',*,*,#235,.F.);
#345=ORIENTED_EDGE('',*,*,#258,.T.);
#346=ORIENTED_EDGE('',*,*,#255,.F.);
#347=ORIENTED_EDGE('',*,*,#259,.F.);
#348=ORIENTED_EDGE('',*,*,#236,.F.);
#349=ORIENTED_EDGE('',*,*,#259,.T.);
#350=ORIENTED_EDGE('',*,*,#254,.F.);
#351=ORIENTED_EDGE('',*,*,#260,.F.);
#352=ORIENTED_EDGE('',*,*,#237,.F.);
#353=ORIENTED_EDGE('',*,*,#260,.T.);
#354=ORIENTED_EDGE('',*,*,#253,.F.);
#355=ORIENTED_EDGE('',*,*,#261,.F.);
#356=ORIENTED_EDGE('',*,*,#234,.F.);
#357=ORIENTED_EDGE('',*,*,#261,.T.);
#358=ORIENTED_EDGE('',*,*,#252,.F.);
#359=ORIENTED_EDGE('',*,*,#258,.F.);
#360=ORIENTED_EDGE('',*,*,#248,.T.);
#361=ORIENTED_EDGE('',*,*,#262,.F.);
#362=ORIENTED_EDGE('',*,*,#256,.T.);
#363=ORIENTED_EDGE('',*,*,#250,.F.);
#364=ORIENTED_EDGE('',*,*,#247,.T.);
#365=ORIENTED_EDGE('',*,*,#257,.T.);
#366=ORIENTED_EDGE('',*,*,#262,.T.);
#367=CYLINDRICAL_SURFACE('',#407,1.);
#368=CYLINDRICAL_SURFACE('',#415,1.);
#369=CYLINDRICAL_SURFACE('',#418,1.);
#370=CYLINDRICAL_SURFACE('',#421,1.);
#371=ADVANCED_FACE('',(#35),#367,.T.);
#372=ADVANCED_FACE('',(#36),#17,.T.);
#373=ADVANCED_FACE('',(#37),#18,.T.);
#374=ADVANCED_FACE('',(#38),#368,.T.);
#375=ADVANCED_FACE('',(#39),#19,.T.);
#376=ADVANCED_FACE('',(#40),#369,.T.);
#377=ADVANCED_FACE('',(#41),#20,.T.);
#378=ADVANCED_FACE('',(#42),#370,.T.);
#379=ADVANCED_FACE('',(#43,#15),#21,.F.);
#380=ADVANCED_FACE('',(#44),#22,.T.);
#381=ADVANCED_FACE('',(#45),#23,.F.);
#382=ADVANCED_FACE('',(#46),#24,.F.);
#383=ADVANCED_FACE('',(#47),#25,.F.);
#384=ADVANCED_FACE('',(#48),#26,.F.);
#385=ADVANCED_FACE('',(#49),#27,.T.);
#386=ADVANCED_FACE('',(#50,#16),#28,.T.);
#387=ADVANCED_FACE('',(#51),#29,.T.);
#388=ADVANCED_FACE('',(#52),#30,.T.);
#389=ADVANCED_FACE('',(#53),#31,.T.);
#390=ADVANCED_FACE('',(#54),#32,.T.);
#391=ADVANCED_FACE('',(#55),#33,.F.);
#392=ADVANCED_FACE('',(#56),#34,.T.);
#393=CLOSED_SHELL('',(#371,#372,#373,#374,#375,#376,#377,#378,#379,#380,
#381,#382,#383,#384,#385,#386,#387,#388,#389,#390,#391,#392));
#394=DERIVED_UNIT_ELEMENT(#396,1.);
#395=DERIVED_UNIT_ELEMENT(#657,-3.);
#396=(
MASS_UNIT()
NAMED_UNIT(*)
SI_UNIT(.KILO.,.GRAM.)
);
#397=DERIVED_UNIT((#394,#395));
#398=MEASURE_REPRESENTATION_ITEM('density measure',
POSITIVE_RATIO_MEASURE(7850.),#397);
#399=PROPERTY_DEFINITION_REPRESENTATION(#404,#401);
#400=PROPERTY_DEFINITION_REPRESENTATION(#405,#402);
#401=REPRESENTATION('material name',(#403),#654);
#402=REPRESENTATION('density',(#398),#654);
#403=DESCRIPTIVE_REPRESENTATION_ITEM('Steel','Steel');
#404=PROPERTY_DEFINITION('material property','material name',#664);
#405=PROPERTY_DEFINITION('material property','density of part',#664);
#406=AXIS2_PLACEMENT_3D('',#543,#437,#438);
#407=AXIS2_PLACEMENT_3D('',#544,#439,#440);
#408=AXIS2_PLACEMENT_3D('',#547,#441,#442);
#409=AXIS2_PLACEMENT_3D('',#551,#444,#445);
#410=AXIS2_PLACEMENT_3D('',#553,#447,#448);
#411=AXIS2_PLACEMENT_3D('',#559,#452,#453);
#412=AXIS2_PLACEMENT_3D('',#563,#455,#456);
#413=AXIS2_PLACEMENT_3D('',#567,#458,#459);
#414=AXIS2_PLACEMENT_3D('',#570,#461,#462);
#415=AXIS2_PLACEMENT_3D('',#571,#463,#464);
#416=AXIS2_PLACEMENT_3D('',#574,#466,#467);
#417=AXIS2_PLACEMENT_3D('',#575,#468,#469);
#418=AXIS2_PLACEMENT_3D('',#579,#472,#473);
#419=AXIS2_PLACEMENT_3D('',#582,#475,#476);
#420=AXIS2_PLACEMENT_3D('',#583,#477,#478);
#421=AXIS2_PLACEMENT_3D('',#587,#481,#482);
#422=AXIS2_PLACEMENT_3D('',#590,#484,#485);
#423=AXIS2_PLACEMENT_3D('',#591,#486,#487);
#424=AXIS2_PLACEMENT_3D('',#601,#493,#494);
#425=AXIS2_PLACEMENT_3D('',#602,#495,#496);
#426=AXIS2_PLACEMENT_3D('',#611,#501,#502);
#427=AXIS2_PLACEMENT_3D('',#615,#505,#506);
#428=AXIS2_PLACEMENT_3D('',#619,#509,#510);
#429=AXIS2_PLACEMENT_3D('',#625,#514,#515);
#430=AXIS2_PLACEMENT_3D('',#629,#518,#519);
#431=AXIS2_PLACEMENT_3D('',#641,#526,#527);
#432=AXIS2_PLACEMENT_3D('',#644,#530,#531);
#433=AXIS2_PLACEMENT_3D('',#646,#533,#534);
#434=AXIS2_PLACEMENT_3D('',#648,#536,#537);
#435=AXIS2_PLACEMENT_3D('',#649,#538,#539);
#436=AXIS2_PLACEMENT_3D('',#651,#541,#542);
#437=DIRECTION('axis',(0.,0.,1.));
#438=DIRECTION('refdir',(1.,0.,0.));
#439=DIRECTION('center_axis',(-1.,0.,0.));
#440=DIRECTION('ref_axis',(0.,0.707106781186541,0.707106781186554));
#441=DIRECTION('center_axis',(-1.,0.,0.));
#442=DIRECTION('ref_axis',(0.,0.707106781186541,0.707106781186554));
#443=DIRECTION('',(-1.,0.,0.));
#444=DIRECTION('center_axis',(-0.989431236835758,0.145002853674206,0.));
#445=DIRECTION('ref_axis',(0.145002853674206,0.989431236835758,7.55211421537653E-16));
#446=DIRECTION('',(1.,0.,0.));
#447=DIRECTION('center_axis',(0.,1.,4.44089209850064E-15));
#448=DIRECTION('ref_axis',(0.,-4.44089209850064E-15,1.));
#449=DIRECTION('',(0.,4.44089209850064E-15,-1.));
#450=DIRECTION('',(1.,0.,0.));
#451=DIRECTION('',(-6.50820393745784E-16,-4.44089209850064E-15,1.));
#452=DIRECTION('center_axis',(1.,0.,0.));
#453=DIRECTION('ref_axis',(0.,0.,-1.));
#454=DIRECTION('',(0.,1.,0.));
#455=DIRECTION('center_axis',(-1.,0.,0.));
#456=DIRECTION('ref_axis',(0.,-0.707106781186548,0.707106781186548));
#457=DIRECTION('',(0.,-4.44089209850064E-15,1.));
#458=DIRECTION('center_axis',(-1.,0.,0.));
#459=DIRECTION('ref_axis',(0.,-0.707106781186541,-0.707106781186554));
#460=DIRECTION('',(0.,-1.,0.));
#461=DIRECTION('center_axis',(-1.,0.,0.));
#462=DIRECTION('ref_axis',(0.,0.707106781186541,-0.707106781186554));
#463=DIRECTION('center_axis',(1.,0.,0.));
#464=DIRECTION('ref_axis',(0.,0.707106781186541,-0.707106781186554));
#465=DIRECTION('',(-1.,0.,0.));
#466=DIRECTION('center_axis',(-0.989431236835758,0.145002853674206,0.));
#467=DIRECTION('ref_axis',(0.145002853674206,0.989431236835758,-7.55211421537653E-16));
#468=DIRECTION('center_axis',(0.,0.,-1.));
#469=DIRECTION('ref_axis',(0.,1.,0.));
#470=DIRECTION('',(1.,0.,0.));
#471=DIRECTION('',(0.145002853674206,0.989431236835758,0.));
#472=DIRECTION('center_axis',(1.,0.,0.));
#473=DIRECTION('ref_axis',(0.,-0.707106781186541,-0.707106781186554));
#474=DIRECTION('',(-1.,0.,0.));
#475=DIRECTION('center_axis',(-0.989431236835758,0.145002853674206,0.));
#476=DIRECTION('ref_axis',(-0.145002853674206,-0.989431236835758,-7.55211421537653E-16));
#477=DIRECTION('center_axis',(0.,-1.,-4.44089209850064E-15));
#478=DIRECTION('ref_axis',(0.,4.44089209850064E-15,-1.));
#479=DIRECTION('',(1.,0.,0.));
#480=DIRECTION('',(6.50820393745784E-16,4.44089209850064E-15,-1.));
#481=DIRECTION('center_axis',(-1.,0.,0.));
#482=DIRECTION('ref_axis',(0.,-0.707106781186548,0.707106781186548));
#483=DIRECTION('',(-1.,0.,0.));
#484=DIRECTION('center_axis',(-0.989431236835758,0.145002853674206,0.));
#485=DIRECTION('ref_axis',(-0.145002853674206,-0.989431236835758,0.));
#486=DIRECTION('center_axis',(-0.989431236835758,0.145002853674206,0.));
#487=DIRECTION('ref_axis',(0.,0.,1.));
#488=DIRECTION('',(0.,0.,-1.));
#489=DIRECTION('',(0.145002853674206,0.989431236835758,0.));
#490=DIRECTION('',(0.,0.,1.));
#491=DIRECTION('',(-0.145002853674206,-0.989431236835758,0.));
#492=DIRECTION('',(-0.145002853674206,-0.989431236835758,0.));
#493=DIRECTION('center_axis',(0.,0.,1.));
#494=DIRECTION('ref_axis',(0.,-1.,0.));
#495=DIRECTION('center_axis',(0.,-1.,0.));
#496=DIRECTION('ref_axis',(0.,0.,-1.));
#497=DIRECTION('',(0.,0.,1.));
#498=DIRECTION('',(1.,0.,0.));
#499=DIRECTION('',(0.,0.,-1.));
#500=DIRECTION('',(1.,0.,0.));
#501=DIRECTION('center_axis',(0.,0.,-1.));
#502=DIRECTION('ref_axis',(0.,1.,0.));
#503=DIRECTION('',(-0.145002853674203,-0.989431236835758,0.));
#504=DIRECTION('',(0.,1.,0.));
#505=DIRECTION('center_axis',(0.,0.,1.));
#506=DIRECTION('ref_axis',(0.,-1.,0.));
#507=DIRECTION('',(0.145002853674203,0.989431236835758,0.));
#508=DIRECTION('',(0.,-1.,0.));
#509=DIRECTION('center_axis',(1.,0.,0.));
#510=DIRECTION('ref_axis',(0.,0.,-1.));
#511=DIRECTION('',(0.,-1.,0.));
#512=DIRECTION('',(0.,0.,-1.));
#513=DIRECTION('',(0.,1.,0.));
#514=DIRECTION('center_axis',(0.,0.,-1.));
#515=DIRECTION('ref_axis',(0.,1.,0.));
#516=DIRECTION('',(1.,-4.44089209850063E-15,0.));
#517=DIRECTION('',(-0.145002853674203,-0.989431236835758,0.));
#518=DIRECTION('center_axis',(-0.989431236835758,0.145002853674203,0.));
#519=DIRECTION('ref_axis',(0.,0.,1.));
#520=DIRECTION('',(0.,0.,1.));
#521=DIRECTION('',(0.145002853674206,0.989431236835758,0.));
#522=DIRECTION('',(0.,0.,-1.));
#523=DIRECTION('',(-0.145002853674206,-0.989431236835758,0.));
#524=DIRECTION('',(0.,0.,-1.));
#525=DIRECTION('',(0.145002853674203,0.989431236835758,0.));
#526=DIRECTION('center_axis',(0.,0.,-1.));
#527=DIRECTION('ref_axis',(-0.145002853674206,-0.989431236835758,0.));
#528=DIRECTION('',(-0.989431236835758,0.145002853674203,0.));
#529=DIRECTION('',(-0.989431236835758,0.145002853674203,0.));
#530=DIRECTION('center_axis',(0.145002853674203,0.989431236835758,0.));
#531=DIRECTION('ref_axis',(0.,0.,-1.));
#532=DIRECTION('',(-0.989431236835758,0.145002853674203,0.));
#533=DIRECTION('center_axis',(0.,0.,1.));
#534=DIRECTION('ref_axis',(0.145002853674206,0.989431236835758,0.));
#535=DIRECTION('',(-0.989431236835758,0.145002853674203,0.));
#536=DIRECTION('center_axis',(-0.145002853674203,-0.989431236835758,0.));
#537=DIRECTION('ref_axis',(0.,0.,1.));
#538=DIRECTION('center_axis',(-4.44089209850063E-15,-1.,0.));
#539=DIRECTION('ref_axis',(-1.,4.44089209850063E-15,0.));
#540=DIRECTION('',(-1.,4.44089209850063E-15,0.));
#541=DIRECTION('center_axis',(0.,0.,1.));
#542=DIRECTION('ref_axis',(0.,-1.,0.));
#543=CARTESIAN_POINT('',(0.,0.,0.));
#544=CARTESIAN_POINT('Origin',(4.,-46.3869517207669,268.7));
#545=CARTESIAN_POINT('',(18.,-46.3869517207669,269.7));
#546=CARTESIAN_POINT('',(18.,-45.3869517207669,268.7));
#547=CARTESIAN_POINT('Origin',(18.,-46.3869517207669,268.7));
#548=CARTESIAN_POINT('',(13.7146551724138,-45.3869517207669,268.7));
#549=CARTESIAN_POINT('',(4.,-45.3869517207669,268.7));
#550=CARTESIAN_POINT('',(13.5681034482759,-46.3869517207669,269.7));
#551=CARTESIAN_POINT('Origin',(13.5681034482759,-46.3869517207669,268.7));
#552=CARTESIAN_POINT('',(4.,-46.3869517207669,269.7));
#553=CARTESIAN_POINT('Origin',(4.,-45.3869517207669,264.8));
#554=CARTESIAN_POINT('',(18.,-45.3869517207669,266.1));
#555=CARTESIAN_POINT('',(18.,-45.3869517207669,265.8));
#556=CARTESIAN_POINT('',(13.7146551724138,-45.3869517207669,266.1));
#557=CARTESIAN_POINT('',(4.,-45.3869517207669,266.1));
#558=CARTESIAN_POINT('',(13.7146551724138,-45.3869517207669,266.1));
#559=CARTESIAN_POINT('Origin',(18.,-49.9869517207669,266.8));
#560=CARTESIAN_POINT('',(18.,-56.1869517207669,269.7));
#561=CARTESIAN_POINT('',(18.,-47.0869517207669,269.7));
#562=CARTESIAN_POINT('',(18.,-57.1869517207669,268.7));
#563=CARTESIAN_POINT('Origin',(18.,-56.1869517207669,268.7));
#564=CARTESIAN_POINT('',(18.,-57.1869517207669,266.1));
#565=CARTESIAN_POINT('',(18.,-57.1869517207669,267.8));
#566=CARTESIAN_POINT('',(18.,-56.1869517207669,265.1));
#567=CARTESIAN_POINT('Origin',(18.,-56.1869517207669,266.1));
#568=CARTESIAN_POINT('',(18.,-46.3869517207669,265.1));
#569=CARTESIAN_POINT('',(18.,-52.8869517207669,265.1));
#570=CARTESIAN_POINT('Origin',(18.,-46.3869517207669,266.1));
#571=CARTESIAN_POINT('Origin',(4.,-46.3869517207669,266.1));
#572=CARTESIAN_POINT('',(13.5681034482759,-46.3869517207669,265.1));
#573=CARTESIAN_POINT('',(4.,-46.3869517207669,265.1));
#574=CARTESIAN_POINT('Origin',(13.5681034482759,-46.3869517207669,266.1));
#575=CARTESIAN_POINT('Origin',(4.,-55.7869517207669,265.1));
#576=CARTESIAN_POINT('',(12.1318965517241,-56.1869517207669,265.1));
#577=CARTESIAN_POINT('',(4.,-56.1869517207669,265.1));
#578=CARTESIAN_POINT('',(12.4341524190615,-54.1244999201122,265.1));
#579=CARTESIAN_POINT('Origin',(4.,-56.1869517207669,266.1));
#580=CARTESIAN_POINT('',(11.9853448275862,-57.1869517207669,266.1));
#581=CARTESIAN_POINT('',(4.,-57.1869517207669,266.1));
#582=CARTESIAN_POINT('Origin',(12.1318965517241,-56.1869517207669,266.1));
#583=CARTESIAN_POINT('Origin',(4.,-57.1869517207669,268.8));
#584=CARTESIAN_POINT('',(11.9853448275862,-57.1869517207669,268.7));
#585=CARTESIAN_POINT('',(4.,-57.1869517207669,268.7));
#586=CARTESIAN_POINT('',(11.9853448275862,-57.1869517207669,268.1));
#587=CARTESIAN_POINT('Origin',(4.,-56.1869517207669,268.7));
#588=CARTESIAN_POINT('',(12.1318965517241,-56.1869517207669,269.7));
#589=CARTESIAN_POINT('',(4.,-56.1869517207669,269.7));
#590=CARTESIAN_POINT('Origin',(12.1318965517241,-56.1869517207669,268.7));
#591=CARTESIAN_POINT('Origin',(12.85,-51.286951720767,267.4));
#592=CARTESIAN_POINT('',(11.7099942926516,-59.0658141944385,271.6));
#593=CARTESIAN_POINT('',(11.7099942926516,-59.0658141944385,263.2));
#594=CARTESIAN_POINT('',(11.7099942926516,-59.0658141944385,271.6));
#595=CARTESIAN_POINT('',(13.9900057073484,-43.5080892470954,263.2));
#596=CARTESIAN_POINT('',(11.7099942926516,-59.0658141944385,263.2));
#597=CARTESIAN_POINT('',(13.9900057073484,-43.5080892470954,271.6));
#598=CARTESIAN_POINT('',(13.9900057073484,-43.5080892470954,263.2));
#599=CARTESIAN_POINT('',(13.9900057073484,-43.5080892470954,271.6));
#600=CARTESIAN_POINT('',(13.2662804656239,-48.4464497200394,269.7));
#601=CARTESIAN_POINT('Origin',(4.,-44.1869517207669,269.7));
#602=CARTESIAN_POINT('Origin',(11.2896551724138,-54.2869517207669,269.6));
#603=CARTESIAN_POINT('',(11.3996631725396,-54.2869517207669,265.2));
#604=CARTESIAN_POINT('',(11.3996631725396,-54.2869517207669,269.6));
#605=CARTESIAN_POINT('',(11.3996631725396,-54.2869517207669,268.5));
#606=CARTESIAN_POINT('',(12.2786551724138,-54.2869517207669,269.6));
#607=CARTESIAN_POINT('',(11.2896551724138,-54.2869517207669,269.6));
#608=CARTESIAN_POINT('',(12.2786551724138,-54.2869517207669,265.2));
#609=CARTESIAN_POINT('',(12.2786551724138,-54.2869517207669,269.6));
#610=CARTESIAN_POINT('',(11.2896551724138,-54.2869517207669,265.2));
#611=CARTESIAN_POINT('Origin',(11.2896551724138,-54.2869517207669,265.2));
#612=CARTESIAN_POINT('',(12.2786551724138,-48.2891239569191,265.2));
#613=CARTESIAN_POINT('',(11.4447211822257,-53.9794970664379,265.2));
#614=CARTESIAN_POINT('',(12.2786551724138,-51.2869517207669,265.2));
#615=CARTESIAN_POINT('Origin',(11.2896551724138,-48.2869517207669,269.6));
#616=CARTESIAN_POINT('',(12.2786551724138,-48.2891239569191,269.6));
#617=CARTESIAN_POINT('',(12.2768492287881,-48.3014468663652,269.6));
#618=CARTESIAN_POINT('',(12.2786551724138,-48.2869517207669,269.6));
#619=CARTESIAN_POINT('Origin',(12.2786551724138,-48.2869517207669,269.6));
#620=CARTESIAN_POINT('',(12.2786551724138,-48.2869517207669,269.6));
#621=CARTESIAN_POINT('',(12.2786551724138,-46.2369517207669,269.6));
#622=CARTESIAN_POINT('',(12.2786551724138,-48.286951720767,265.2));
#623=CARTESIAN_POINT('',(12.2786551724138,-48.2869517207669,269.6));
#624=CARTESIAN_POINT('',(12.2786551724138,-52.0369517207669,265.2));
#625=CARTESIAN_POINT('Origin',(4.,-55.7869517207669,265.2));
#626=CARTESIAN_POINT('',(12.2789735173671,-48.286951720767,265.2));
#627=CARTESIAN_POINT('',(8.64482758620692,-48.2869517207669,265.2));
#628=CARTESIAN_POINT('',(11.4447211822257,-53.9794970664379,265.2));
#629=CARTESIAN_POINT('Origin',(11.8605687631642,-51.1419488670927,267.4));
#630=CARTESIAN_POINT('',(10.7205630558158,-58.9208113407643,263.2));
#631=CARTESIAN_POINT('',(10.7205630558158,-58.9208113407643,271.6));
#632=CARTESIAN_POINT('',(10.7205630558158,-58.9208113407643,271.6));
#633=CARTESIAN_POINT('',(13.0005744705127,-43.3630863934212,271.6));
#634=CARTESIAN_POINT('',(13.0005744705127,-43.3630863934212,271.6));
#635=CARTESIAN_POINT('',(13.0005744705127,-43.3630863934212,263.2));
#636=CARTESIAN_POINT('',(13.0005744705127,-43.3630863934212,263.2));
#637=CARTESIAN_POINT('',(10.7205630558158,-58.9208113407643,263.2));
#638=CARTESIAN_POINT('',(12.2789735173671,-48.2869517207669,269.6));
#639=CARTESIAN_POINT('',(12.2789735173671,-48.2869517207669,268.5));
#640=CARTESIAN_POINT('',(12.2768492287881,-48.3014468663652,269.6));
#641=CARTESIAN_POINT('Origin',(13.9900057073484,-43.5080892470954,263.2));
#642=CARTESIAN_POINT('',(11.7099942926516,-59.0658141944385,263.2));
#643=CARTESIAN_POINT('',(13.9900057073484,-43.5080892470954,263.2));
#644=CARTESIAN_POINT('Origin',(13.9900057073484,-43.5080892470954,271.6));
#645=CARTESIAN_POINT('',(13.9900057073484,-43.5080892470954,271.6));
#646=CARTESIAN_POINT('Origin',(11.7099942926516,-59.0658141944385,271.6));
#647=CARTESIAN_POINT('',(11.7099942926516,-59.0658141944385,271.6));
#648=CARTESIAN_POINT('Origin',(11.7099942926516,-59.0658141944385,263.2));
#649=CARTESIAN_POINT('Origin',(13.2896551724138,-48.286951720767,269.6));
#650=CARTESIAN_POINT('',(8.64482758620689,-48.2869517207669,269.6));
#651=CARTESIAN_POINT('Origin',(4.,-44.1869517207669,269.6));
#652=UNCERTAINTY_MEASURE_WITH_UNIT(LENGTH_MEASURE(0.01),#656,
'DISTANCE_ACCURACY_VALUE',
'Maximum model space distance between geometric entities at asserted c
onnectivities');
#653=UNCERTAINTY_MEASURE_WITH_UNIT(LENGTH_MEASURE(0.01),#656,
'DISTANCE_ACCURACY_VALUE',
'Maximum model space distance between geometric entities at asserted c
onnectivities');
#654=(
GEOMETRIC_REPRESENTATION_CONTEXT(3)
GLOBAL_UNCERTAINTY_ASSIGNED_CONTEXT((#652))
GLOBAL_UNIT_ASSIGNED_CONTEXT((#656,#658,#659))
REPRESENTATION_CONTEXT('','3D')
);
#655=(
GEOMETRIC_REPRESENTATION_CONTEXT(3)
GLOBAL_UNCERTAINTY_ASSIGNED_CONTEXT((#653))
GLOBAL_UNIT_ASSIGNED_CONTEXT((#656,#658,#659))
REPRESENTATION_CONTEXT('','3D')
);
#656=(
LENGTH_UNIT()
NAMED_UNIT(*)
SI_UNIT(.MILLI.,.METRE.)
);
#657=(
LENGTH_UNIT()
NAMED_UNIT(*)
SI_UNIT($,.METRE.)
);
#658=(
NAMED_UNIT(*)
PLANE_ANGLE_UNIT()
SI_UNIT($,.RADIAN.)
);
#659=(
NAMED_UNIT(*)
SI_UNIT($,.STERADIAN.)
SOLID_ANGLE_UNIT()
);
#660=SHAPE_DEFINITION_REPRESENTATION(#661,#662);
#661=PRODUCT_DEFINITION_SHAPE('',$,#664);
#662=SHAPE_REPRESENTATION('',(#406),#654);
#663=PRODUCT_DEFINITION_CONTEXT('part definition',#668,'design');
#664=PRODUCT_DEFINITION('MAC27DISPLAY_r1820','MAC27DISPLAY_r1820 v31',#665,
#663);
#665=PRODUCT_DEFINITION_FORMATION('',$,#670);
#666=PRODUCT_RELATED_PRODUCT_CATEGORY('MAC27DISPLAY_r1820 v31',
'MAC27DISPLAY_r1820 v31',(#670));
#667=APPLICATION_PROTOCOL_DEFINITION('international standard',
'automotive_design',2009,#668);
#668=APPLICATION_CONTEXT(
'Core Data for Automotive Mechanical Design Process');
#669=PRODUCT_CONTEXT('part definition',#668,'mechanical');
#670=PRODUCT('MAC27DISPLAY_r1820','MAC27DISPLAY_r1820 v31',$,(#669));
#671=PRESENTATION_STYLE_ASSIGNMENT((#672));
#672=SURFACE_STYLE_USAGE(.BOTH.,#673);
#673=SURFACE_SIDE_STYLE('',(#674));
#674=SURFACE_STYLE_FILL_AREA(#675);
#675=FILL_AREA_STYLE('Steel - Satin',(#676));
#676=FILL_AREA_STYLE_COLOUR('Steel - Satin',#677);
#677=COLOUR_RGB('Steel - Satin',0.627450980392157,0.627450980392157,0.627450980392157);
ENDSEC;
END-ISO-10303-21;
